<svg width="600" height="285" viewBox="0 0 600 285" fill="none" xmlns="http://www.w3.org/2000/svg">
<path d="M148.277 150.495C148.265 150.469 148.246 150.447 148.222 150.431C148.198 150.416 148.17 150.408 148.142 150.408C148.114 150.408 148.086 150.416 148.062 150.431C148.038 150.447 148.019 150.469 148.007 150.495C143.936 160.153 136.319 178.224 125.155 204.708C120.104 216.693 104.124 218.434 96.1293 208.668C95.1817 207.507 93.977 205.177 92.5151 201.678C85.1547 184.03 61.9973 128.693 23.043 35.6677C21.7773 32.6389 21.0464 30.2667 20.8501 28.551C19.3729 15.6626 32.1039 5.287 44.4542 10.2769C47.1344 11.3564 49.4102 13.0332 51.2816 15.3073C52.2494 16.4782 53.5354 18.9824 55.1394 22.82C82.9093 89.1855 101.004 132.419 109.424 152.521C109.44 152.557 109.467 152.589 109.5 152.611C109.534 152.633 109.574 152.644 109.614 152.644C109.654 152.644 109.694 152.633 109.728 152.611C109.761 152.589 109.788 152.557 109.804 152.521L129.109 105.541C129.144 105.454 129.162 105.361 129.161 105.267C129.16 105.172 129.141 105.079 129.104 104.993C113.067 66.3293 102.95 41.9046 98.7537 31.7185C97.4592 28.5763 97.4745 24.2515 98.6014 20.9367C101.449 12.5357 109.129 8.15502 117.901 9.20578C121.931 9.68971 125.229 11.4038 127.794 14.3479C128.952 15.6779 130.434 18.5205 132.241 22.8758C134.86 29.1838 140.104 41.6356 147.972 60.2312C147.985 60.2653 148.009 60.2946 148.039 60.3153C148.069 60.3359 148.105 60.347 148.142 60.347C148.179 60.347 148.215 60.3359 148.245 60.3153C148.275 60.2946 148.299 60.2653 148.312 60.2312C159.138 34.0789 164.776 20.4664 165.226 19.3936C168.2 12.3022 175.606 8.14487 183.165 9.19056C193.256 10.5916 199.586 19.8961 197.906 29.9368C197.706 31.1313 197.016 33.089 195.835 35.8098C195.385 36.842 185.759 59.8386 166.957 104.8C166.894 104.949 166.862 105.11 166.862 105.273C166.862 105.436 166.894 105.598 166.957 105.749L186.408 152.449C186.427 152.494 186.458 152.533 186.498 152.56C186.538 152.587 186.586 152.602 186.634 152.602C186.683 152.602 186.73 152.587 186.771 152.56C186.811 152.533 186.842 152.494 186.86 152.449C203.649 112.118 222.155 67.6812 242.378 19.1398C244.089 15.0383 247.82 11.622 252.089 10.0586C256.694 8.36991 261.395 8.76924 266.19 11.2565C272.606 14.5865 275.855 21.419 275.2 28.4596C275.055 30.0197 274.238 32.5797 272.749 36.1398C227.094 145.192 203.95 200.509 203.317 202.089C202.068 205.209 200.884 207.439 199.764 208.779C191.48 218.693 175.733 216.414 170.764 204.495C161.837 183.108 154.341 165.108 148.277 150.495Z" fill="white"/>
<path d="M401.099 112.013C401.094 121.678 393.444 129.109 383.764 129.12C351.348 129.16 331.539 129.16 324.337 129.12C324.285 129.12 324.235 129.14 324.197 129.177C324.16 129.215 324.139 129.265 324.139 129.317V180.287C324.139 180.335 324.159 180.382 324.193 180.416C324.227 180.451 324.274 180.47 324.322 180.47C351.189 180.443 377.145 180.446 402.19 180.48C403.361 180.483 404.74 180.734 406.327 181.231C422.373 186.257 422.52 209.17 406.282 214.277C404.691 214.778 401.42 215.026 396.469 215.023C345.985 214.996 317.007 214.991 309.535 215.008C305.17 215.018 301.556 214.784 297.738 212.434C292.341 209.108 289.605 204.116 289.53 197.46C289.493 193.974 289.476 165.49 289.48 112.008C289.483 58.5256 289.503 30.0417 289.54 26.5561C289.615 19.8995 292.351 14.908 297.749 11.5814C301.566 9.23626 305.18 9.00276 309.546 9.01291C317.018 9.02983 345.996 9.02645 396.48 9.00276C401.43 8.99938 404.701 9.24811 406.292 9.74895C422.53 14.8606 422.378 37.7743 406.332 42.7946C404.745 43.2921 403.366 43.5425 402.195 43.5459C377.15 43.5798 351.194 43.5814 324.327 43.551C324.279 43.551 324.232 43.5702 324.198 43.6045C324.164 43.6388 324.145 43.6853 324.145 43.7337L324.139 94.7033C324.139 94.7558 324.16 94.8061 324.197 94.8432C324.235 94.8804 324.285 94.9012 324.337 94.9012C331.539 94.8606 351.349 94.8623 383.769 94.9063C393.444 94.9215 401.099 102.348 401.099 112.013Z" fill="white"/>
<path d="M452.556 112.033C452.556 140.49 470.409 166.018 496.754 176.003C514.693 182.805 535.982 182.003 552.967 172.607C557.403 170.15 562.464 169.505 567.195 171.008C579.464 174.911 583.068 189.637 574.642 199.155C573.001 201.006 570.057 202.918 565.81 204.891C533.256 220.023 496.15 218.231 465.799 198.932C436.134 180.069 418.038 147.389 418.038 112.033C418.038 76.6728 436.134 43.9926 465.799 25.1297C496.15 5.83018 533.256 4.0383 565.81 19.1754C570.057 21.1483 573.001 23.0603 574.642 24.9114C583.068 34.4292 579.464 49.155 567.195 53.0586C562.464 54.5611 557.403 53.9165 552.967 51.4596C535.982 42.0586 514.693 41.2566 496.754 48.0586C470.409 58.0434 452.556 83.5713 452.556 112.033Z" fill="white"/>
<path d="M490.83 71.7034C490.776 71.721 490.717 71.7191 490.664 71.698C490.611 71.6769 490.567 71.6379 490.54 71.5878C490.513 71.5377 490.504 71.4797 490.515 71.4238C490.527 71.368 490.557 71.3178 490.601 71.282C499.058 64.7981 508.583 61.1754 519.175 60.414C534.317 59.3226 548.825 64.9115 559.576 75.3937C559.602 75.4194 559.621 75.4521 559.629 75.488C559.637 75.5238 559.635 75.5613 559.623 75.596C559.611 75.6306 559.589 75.6611 559.56 75.6837C559.531 75.7063 559.496 75.7202 559.459 75.7237C558.865 75.7896 558.043 76.1754 557.642 76.6424C556.258 78.2567 554.403 79.4783 552.079 80.3074C551.503 80.5139 551.217 80.8844 551.221 81.4191C551.231 82.7034 551.906 83.9978 553.586 83.5054C553.676 83.4786 553.76 83.4299 553.83 83.3633L554.591 82.6018C554.617 82.576 554.648 82.5564 554.682 82.5447C554.717 82.533 554.753 82.5295 554.789 82.5344C554.825 82.5393 554.86 82.5526 554.889 82.5731C554.919 82.5936 554.944 82.6208 554.962 82.6526C555.354 83.3599 555.561 84.0891 555.581 84.8404C555.583 84.8893 555.595 84.9371 555.618 84.9806C555.64 85.024 555.672 85.0619 555.712 85.0915C555.751 85.1212 555.797 85.1418 555.845 85.1519C555.894 85.162 555.944 85.1614 555.992 85.1501L558.383 84.5409C558.459 84.5221 558.529 84.4862 558.588 84.436C558.647 84.3858 558.693 84.3226 558.723 84.2516C559.052 83.4902 559.512 82.8455 560.104 82.3176C560.158 82.2704 560.198 82.21 560.221 82.1424C560.244 82.0749 560.25 82.0024 560.236 81.9322C560.223 81.862 560.192 81.7965 560.145 81.7421C560.099 81.6878 560.039 81.6464 559.972 81.6221L559.485 81.4496C559.357 81.4023 559.248 81.3131 559.178 81.1965C559.107 81.0799 559.078 80.9427 559.095 80.8073C559.112 80.672 559.174 80.5464 559.272 80.451C559.369 80.3556 559.496 80.2961 559.632 80.282C560.867 80.1704 561.725 79.6644 562.205 78.7643C562.224 78.7287 562.249 78.6972 562.28 78.6715C562.311 78.6459 562.347 78.6266 562.386 78.6148C562.424 78.603 562.465 78.599 562.506 78.6028C562.546 78.6067 562.586 78.6184 562.622 78.6374C562.896 78.7795 563.035 78.9741 563.038 79.2211C563.038 79.2698 563.018 79.3173 562.982 79.3531L562.124 80.211C562.062 80.2731 562.018 80.3514 561.999 80.4367C561.979 80.5221 561.984 80.611 562.013 80.6932C562.261 81.4242 562.515 82.3023 563.566 81.947C564.517 81.6221 565.123 81.6594 565.383 82.0587C565.429 82.1287 565.452 82.2101 565.45 82.2932C565.448 82.3764 565.421 82.4579 565.373 82.5282C565.324 82.5985 565.256 82.6547 565.176 82.6902C565.096 82.7257 565.008 82.7391 564.921 82.7287C564.123 82.634 563.75 82.9166 563.804 83.5765C563.808 83.6283 563.799 83.6802 563.778 83.7279C563.758 83.7755 563.726 83.8175 563.686 83.8503C563.645 83.8832 563.598 83.9058 563.547 83.9165C563.496 83.9271 563.443 83.9254 563.393 83.9115C561.769 83.4597 561.322 84.5003 561.348 85.6577C561.348 85.697 561.341 85.7361 561.327 85.7727C561.312 85.8093 561.291 85.8427 561.263 85.8709C561.236 85.8992 561.204 85.9218 561.167 85.9375C561.131 85.9532 561.093 85.9616 561.053 85.9622C560.989 85.9622 560.744 85.9081 560.317 85.7998C559.49 85.5917 558.845 85.8201 557.967 86.1551C557.791 86.2249 557.598 86.2477 557.409 86.2211L555.15 85.9216C555.036 85.9074 554.93 85.8538 554.852 85.7702C554.774 85.6866 554.728 85.5784 554.723 85.4648L554.667 84.2922C554.666 84.2566 554.657 84.2218 554.64 84.19C554.624 84.1583 554.601 84.1304 554.573 84.1083C554.546 84.0861 554.513 84.0702 554.479 84.0617C554.444 84.0531 554.408 84.0521 554.373 84.0587C553.129 84.277 552.53 85.145 553.525 86.1805C553.557 86.2152 553.578 86.2591 553.583 86.306C553.589 86.3529 553.579 86.4003 553.556 86.4415C553.533 86.4827 553.497 86.5154 553.454 86.5351C553.411 86.5548 553.363 86.5604 553.317 86.5511C551.073 86.0333 551.089 87.7338 549.256 87.9825C549.208 87.989 549.159 87.9844 549.114 87.9692C549.068 87.954 549.026 87.9286 548.991 87.8949C548.956 87.8612 548.93 87.82 548.913 87.7745C548.897 87.7291 548.891 87.6804 548.896 87.6323C548.93 87.321 548.341 86.6763 547.129 85.6983C546.554 85.2347 546.266 84.6272 546.266 83.8759C546.266 83.7787 546.246 83.6827 546.207 83.5943C546.167 83.506 546.11 83.4272 546.038 83.3633C545.018 82.4495 544.134 82.9572 542.87 83.5257C542.79 83.5629 542.719 83.6195 542.666 83.6904C542.613 83.7614 542.578 83.8444 542.566 83.9318C542.525 84.1957 542.603 84.4529 542.799 84.7034C542.816 84.7235 542.827 84.7478 542.83 84.7736C542.833 84.7995 542.829 84.8259 542.818 84.85C542.807 84.8741 542.79 84.8949 542.768 84.9103C542.745 84.9256 542.72 84.9348 542.693 84.9369C542.239 84.9673 541.603 85.3226 540.784 86.0028C540.741 86.0382 540.705 86.0818 540.68 86.1307C540.655 86.1796 540.64 86.2329 540.637 86.2871L540.551 87.5003C540.544 87.5913 540.558 87.6827 540.59 87.7678C540.623 87.853 540.674 87.9298 540.74 87.9929C540.806 88.0559 540.885 88.1036 540.972 88.1325C541.059 88.1615 541.15 88.1709 541.241 88.1602C542.845 87.9809 543.642 87.2482 543.632 85.9622C543.631 85.9217 543.64 85.8816 543.658 85.8453C543.676 85.8091 543.703 85.7778 543.736 85.7543C543.769 85.7308 543.808 85.7157 543.848 85.7104C543.888 85.705 543.929 85.7096 543.967 85.7237L544.86 86.0384C544.903 86.0535 544.941 86.0806 544.969 86.1166C544.997 86.1525 545.014 86.1957 545.019 86.2411C545.023 86.2865 545.014 86.3322 544.993 86.3727C544.972 86.4133 544.94 86.447 544.901 86.4699C544.373 86.7643 544.053 87.0875 543.942 87.4394C543.914 87.5249 543.91 87.6158 543.931 87.7019C543.952 87.7881 543.996 87.8659 544.058 87.9267L544.794 88.6627C544.839 88.7076 544.898 88.7356 544.961 88.7421C545.023 88.7486 545.087 88.7331 545.139 88.6983C545.61 88.3903 546.359 88.3751 547.388 88.6526C547.421 88.6627 547.456 88.6644 547.49 88.6577L548.551 88.3886C548.572 88.3829 548.595 88.3826 548.617 88.3878C548.639 88.3929 548.659 88.4033 548.677 88.4182C548.694 88.433 548.708 88.4519 548.717 88.4732C548.726 88.4946 548.73 88.5178 548.728 88.5409L548.718 88.7287C548.715 88.7688 548.699 88.8069 548.673 88.8378C548.646 88.8688 548.611 88.891 548.571 88.9013L544.637 89.8963C544.602 89.9046 544.571 89.9244 544.548 89.9526C544.525 89.9807 544.513 90.0156 544.512 90.0516C544.512 90.0877 544.523 90.123 544.545 90.1518C544.566 90.1807 544.597 90.2015 544.632 90.211C545.561 90.4546 546.728 90.6983 546.749 91.8049C546.772 92.9081 546.221 93.4106 545.094 93.3125C543.757 93.1974 542.694 93.1501 541.906 93.1704C541.811 93.1731 541.717 93.1957 541.631 93.2369C541.545 93.278 541.469 93.3367 541.408 93.4091C541.347 93.4815 541.301 93.566 541.275 93.6569C541.249 93.7479 541.243 93.8433 541.256 93.9369C541.402 94.9419 541.332 95.7541 541.048 96.3734C540.99 96.5016 540.967 96.6424 540.983 96.7835C540.999 96.9247 541.052 97.062 541.138 97.1838C541.225 97.3056 541.342 97.4082 541.479 97.4827C541.616 97.5573 541.77 97.6017 541.926 97.612C542.535 97.656 543.058 97.8709 543.495 98.2567C543.527 98.2841 543.564 98.3049 543.604 98.318C543.644 98.331 543.686 98.336 543.728 98.3327C543.77 98.3294 543.811 98.3179 543.848 98.2987C543.886 98.2796 543.919 98.2532 543.947 98.2211C543.98 98.1805 544.004 98.1518 544.018 98.1348C544.053 98.0904 544.097 98.0541 544.148 98.0287C544.199 98.0033 544.255 97.9892 544.312 97.9876C545.233 97.9605 546.024 97.7541 546.688 97.3683C546.891 97.2533 547.131 96.8032 547.409 96.0181C547.642 95.3649 548.249 94.9267 549.231 94.7034C549.303 94.688 549.371 94.6537 549.427 94.604C549.483 94.5542 549.526 94.4905 549.551 94.4191L549.85 93.5815C549.878 93.501 549.934 93.4331 550.007 93.3903C550.081 93.3474 550.167 93.3324 550.251 93.348C551.606 93.5917 551.875 93.815 553.104 93.0028C553.212 92.9312 553.333 92.8807 553.459 92.8541C553.585 92.8276 553.714 92.8256 553.838 92.8483C553.962 92.8711 554.079 92.918 554.181 92.9864C554.283 93.0547 554.369 93.1432 554.434 93.2465C555.104 94.3074 555.881 94.7389 557.063 95.1044C557.838 95.3413 558.305 95.7778 558.464 96.414C558.473 96.4483 558.491 96.4794 558.517 96.5033C558.542 96.5273 558.575 96.543 558.61 96.5484C558.645 96.5538 558.68 96.5488 558.712 96.5339C558.744 96.519 558.771 96.4949 558.789 96.4648L559.287 95.678C559.313 95.6359 559.324 95.5857 559.316 95.537C559.309 95.4883 559.284 95.4445 559.246 95.414L555.769 92.4242C555.737 92.3968 555.711 92.3625 555.694 92.3239C555.676 92.2853 555.668 92.2433 555.669 92.2009C555.67 92.1586 555.68 92.117 555.699 92.0793C555.718 92.0415 555.746 92.0084 555.779 91.9825C556.026 91.7897 556.368 91.8235 556.804 92.0841C557.211 92.3277 558.295 93.0976 560.058 94.3937C560.209 94.5041 560.335 94.6459 560.429 94.81L562.211 97.8912C562.243 97.9459 562.286 97.9934 562.337 98.0308C562.388 98.0682 562.447 98.0946 562.508 98.1084C562.57 98.1222 562.634 98.1231 562.697 98.1111C562.759 98.099 562.818 98.0743 562.87 98.0384L563.683 97.4902C563.751 97.4435 563.808 97.3823 563.85 97.3111C563.892 97.2398 563.918 97.1601 563.926 97.0777C563.933 96.9954 563.923 96.9123 563.895 96.8344C563.867 96.7566 563.822 96.6858 563.764 96.6272L563.312 96.1805C563.285 96.154 563.265 96.1221 563.252 96.087C563.238 96.0518 563.233 96.0143 563.235 95.9768C563.238 95.9393 563.248 95.9028 563.266 95.8696C563.283 95.8365 563.308 95.8075 563.337 95.7846C563.872 95.3785 564.366 95.1281 564.82 95.0333C564.868 95.0231 564.919 95.0243 564.967 95.0366C565.015 95.049 565.06 95.0723 565.098 95.1047C565.135 95.137 565.165 95.1776 565.185 95.2233C565.204 95.2691 565.213 95.3187 565.211 95.3683C565.194 95.6661 565.221 96.0553 565.292 96.5358C565.434 97.4851 567.048 98.0688 567.799 98.1754C569.163 98.3683 570.412 98.2956 571.546 97.9572C571.584 97.9462 571.625 97.9443 571.664 97.9516C571.703 97.9589 571.741 97.9753 571.772 97.9994C571.804 98.0235 571.83 98.0547 571.848 98.0905C571.866 98.1264 571.876 98.1658 571.876 98.2059C571.881 99.3379 571.114 102.521 569.302 101.8C567.987 101.277 566.749 102.018 565.906 102.932C565.871 102.969 565.823 102.991 565.771 102.994C565.719 102.997 565.668 102.98 565.627 102.947L565.52 102.851C565.5 102.834 565.485 102.813 565.475 102.79C565.465 102.766 565.46 102.74 565.461 102.714C565.463 102.688 565.47 102.663 565.483 102.64C565.496 102.617 565.514 102.597 565.535 102.582L566.637 101.83C566.684 101.797 566.72 101.75 566.74 101.696C566.76 101.641 566.762 101.582 566.746 101.526C566.73 101.47 566.698 101.421 566.653 101.384C566.608 101.348 566.553 101.326 566.495 101.323C565.028 101.252 564.439 101.348 563.094 100.835C562.363 100.554 561.708 100.79 561.129 101.541C560.926 101.807 560.644 102.001 560.327 102.095C560.01 102.189 559.674 102.178 559.368 102.064C557.331 101.292 555.664 100.571 554.368 99.9013C554.311 99.8714 554.264 99.8259 554.231 99.7701C554.199 99.7143 554.184 99.6505 554.186 99.5862C554.189 99.5219 554.21 99.4596 554.246 99.4066C554.283 99.3537 554.334 99.3123 554.393 99.2871L554.804 99.1145C554.889 99.0779 554.958 99.0118 554.996 98.9291C555.035 98.8465 555.041 98.7533 555.013 98.6678C554.85 98.1805 554.666 97.815 554.459 97.5714C554.418 97.524 554.367 97.4866 554.31 97.462C554.253 97.4374 554.191 97.4262 554.129 97.4292L549.388 97.6881C549.267 97.6949 549.146 97.7171 549.028 97.7541C548.114 98.0316 547.041 98.4292 545.81 98.947C545.573 99.0451 544.936 99.0621 543.901 98.9978C543.772 98.991 543.644 99.0267 543.535 99.0993L541.409 100.551C541.285 100.633 541.183 100.743 541.109 100.87C541.035 100.998 540.991 101.14 540.982 101.287L540.901 102.465C540.893 102.582 540.858 102.695 540.799 102.796C540.74 102.898 540.659 102.984 540.561 103.049L538.17 104.678C538.08 104.738 538.007 104.82 537.957 104.917L536.434 107.724C536.362 107.855 536.324 108.002 536.322 108.153C536.32 108.303 536.355 108.452 536.424 108.587C537.073 109.873 537.028 110.971 536.287 111.881C536.061 112.156 535.945 112.505 535.962 112.861L536.043 114.516C536.048 114.609 536.076 114.7 536.126 114.779C536.176 114.859 536.245 114.926 536.327 114.972C537.261 115.504 537.811 115.878 537.977 116.094C539.493 118.033 540.796 119.35 541.886 120.043C541.95 120.085 542.027 120.103 542.102 120.094C542.177 120.086 542.246 120.052 542.297 119.998C543.459 118.81 545.129 119.698 546.332 119.378C547.27 119.131 548.107 118.798 548.845 118.378C549.169 118.196 549.549 118.141 549.911 118.226C550.273 118.31 550.59 118.528 550.799 118.835L551.485 119.845C551.533 119.917 551.601 119.973 551.681 120.008C551.761 120.043 551.849 120.056 551.936 120.043C552.197 120.006 552.534 119.874 552.947 119.648C553.136 119.541 553.355 119.495 553.573 119.515C553.791 119.535 553.997 119.62 554.16 119.758C554.324 119.897 554.438 120.081 554.485 120.285C554.532 120.49 554.511 120.704 554.424 120.896C554.153 121.495 553.886 122.377 553.622 123.541C553.6 123.632 553.603 123.728 553.63 123.818C553.656 123.907 553.706 123.989 553.774 124.054C555.043 125.252 556.444 126.967 556.398 128.871C556.395 129.005 556.421 129.14 556.474 129.267L556.931 130.363C556.979 130.479 556.992 130.607 556.968 130.731C556.943 130.854 556.883 130.968 556.794 131.059C554.175 133.764 556.251 135.693 557.469 138.226C557.577 138.448 557.646 138.688 557.672 138.937L557.83 140.526C557.863 140.856 557.973 141.176 558.15 141.46C558.312 141.724 558.554 142.05 558.875 142.439C559.586 143.297 559.779 144.378 559.962 145.439C559.991 145.604 560.054 145.76 560.146 145.899C560.238 146.038 560.358 146.156 560.498 146.247C560.638 146.337 560.795 146.398 560.96 146.425C561.124 146.452 561.293 146.445 561.454 146.404L562.769 146.069C562.814 146.057 562.861 146.06 562.904 146.077C562.947 146.094 562.983 146.124 563.008 146.163C563.033 146.202 563.045 146.247 563.042 146.293C563.039 146.34 563.022 146.384 562.992 146.419C547.87 164.236 523.982 169.866 502.343 161.13C502.079 161.025 501.884 160.932 501.759 160.851C501.71 160.82 501.672 160.774 501.649 160.721C501.626 160.668 501.62 160.61 501.631 160.553C501.642 160.497 501.67 160.446 501.711 160.406C501.752 160.367 501.804 160.341 501.86 160.333C502.513 160.221 502.876 160.138 502.947 160.084C502.968 160.067 502.984 160.045 502.992 160.019C503.001 159.994 503.001 159.966 502.994 159.94C502.987 159.914 502.973 159.891 502.953 159.873C502.932 159.855 502.907 159.844 502.881 159.84C501.808 159.715 501.068 159.263 500.662 158.485C500.556 158.278 500.518 158.043 500.554 157.813C500.589 157.584 500.696 157.371 500.86 157.206L502.647 155.419C502.691 155.375 502.723 155.321 502.74 155.262C502.758 155.202 502.759 155.14 502.746 155.079C502.732 155.019 502.703 154.963 502.662 154.917C502.621 154.87 502.568 154.835 502.51 154.815L501.921 154.607C501.871 154.59 501.826 154.56 501.791 154.52C501.756 154.48 501.731 154.432 501.72 154.38C501.708 154.328 501.71 154.273 501.724 154.222C501.739 154.17 501.767 154.123 501.804 154.084L503.901 151.988C503.924 151.964 503.941 151.936 503.951 151.904C503.961 151.873 503.963 151.84 503.958 151.808C503.953 151.775 503.941 151.744 503.922 151.717C503.904 151.691 503.879 151.668 503.85 151.653C503.447 151.439 503.195 151.199 503.094 150.932C503.07 150.87 503.064 150.802 503.076 150.737C503.089 150.672 503.12 150.612 503.166 150.564C503.211 150.517 503.269 150.483 503.333 150.468C503.397 150.453 503.464 150.457 503.525 150.48L504.485 150.82C504.521 150.833 504.559 150.837 504.597 150.832C504.635 150.827 504.672 150.814 504.704 150.793C504.736 150.772 504.762 150.743 504.781 150.71C504.801 150.677 504.812 150.64 504.815 150.602L504.865 149.911C504.869 149.848 504.886 149.786 504.914 149.729C504.942 149.672 504.981 149.621 505.029 149.579C505.077 149.537 505.133 149.505 505.194 149.484C505.255 149.464 505.319 149.456 505.383 149.46C507.414 149.598 508.557 149.01 508.815 147.693C508.837 147.581 508.832 147.466 508.801 147.355C508.77 147.245 508.714 147.144 508.637 147.059C508.16 146.521 507.901 145.92 507.86 145.257C507.852 145.217 507.86 145.176 507.883 145.142C507.905 145.108 507.94 145.085 507.98 145.076C508.019 145.068 508.061 145.076 508.094 145.099C508.128 145.121 508.152 145.156 508.16 145.196C508.302 145.602 508.398 145.859 508.449 145.967C509.449 148.196 511.612 145.485 512.231 144.475C512.372 144.243 512.545 144.031 512.744 143.845C513.784 142.876 514.769 142.079 514.53 140.84C514.261 139.434 517.744 138.551 518.586 138.444C518.857 138.409 519.103 138.273 519.277 138.064C520.535 136.548 521.077 134.805 520.901 132.835C520.81 131.866 521.469 131.648 522.043 131.064C523.008 130.086 523.605 129.04 523.835 127.927C523.891 127.658 523.859 127.379 523.744 127.13C523.629 126.882 523.436 126.677 523.195 126.546L520.231 124.927C520.059 124.834 519.864 124.795 519.672 124.815C518.715 124.913 517.525 124.49 516.104 123.546C515.975 123.461 515.832 123.401 515.684 123.369C515.535 123.338 515.385 123.335 515.245 123.363C515.104 123.39 514.975 123.447 514.867 123.528C514.76 123.61 514.676 123.715 514.622 123.835C514.466 124.184 514.205 124.466 513.84 124.683C513.779 124.719 513.708 124.73 513.64 124.715C513.572 124.7 513.513 124.659 513.475 124.602L513.378 124.465C513.366 124.446 513.358 124.425 513.355 124.403C513.351 124.381 513.353 124.359 513.359 124.338C513.365 124.316 513.376 124.297 513.391 124.28C513.406 124.264 513.424 124.25 513.444 124.241C513.691 124.143 513.94 123.955 514.19 123.678C514.271 123.587 514.314 123.468 514.31 123.347C514.306 123.225 514.256 123.109 514.17 123.023L514.028 122.881C513.973 122.827 513.9 122.796 513.823 122.795C513.746 122.794 513.672 122.823 513.617 122.876C513.075 123.404 512.502 123.627 511.896 123.546C511.847 123.54 511.802 123.518 511.767 123.484C511.732 123.449 511.71 123.404 511.703 123.356C511.696 123.308 511.705 123.258 511.729 123.216C511.753 123.173 511.79 123.139 511.835 123.12L513.515 122.363C513.564 122.342 513.607 122.308 513.641 122.267C513.675 122.225 513.698 122.175 513.709 122.122C513.72 122.069 513.718 122.014 513.704 121.962C513.69 121.909 513.663 121.861 513.627 121.82C513.073 121.211 511.678 119.049 510.155 118.957C509.407 118.913 508.991 118.879 508.906 118.856C508.694 118.799 508.503 118.683 508.358 118.521C507.718 117.79 506.999 117.329 506.2 117.14C506.093 117.114 505.998 117.053 505.929 116.967C505.861 116.882 505.824 116.776 505.825 116.668C505.825 116.661 505.833 116.6 505.85 116.485C505.866 116.379 505.847 116.271 505.796 116.177C505.745 116.083 505.664 116.007 505.566 115.962C505.15 115.773 504.762 115.615 504.403 115.49C504.156 115.406 503.947 115.424 503.774 115.546C503.581 115.681 503.436 115.859 503.337 116.079C503.321 116.116 503.295 116.148 503.263 116.173C503.231 116.197 503.193 116.213 503.152 116.218C503.112 116.224 503.071 116.219 503.034 116.204C502.996 116.19 502.962 116.166 502.936 116.135L502.683 115.83C502.625 115.761 502.553 115.704 502.472 115.662C502.391 115.62 502.302 115.595 502.211 115.587C502.004 115.573 501.706 115.631 501.317 115.759C501.236 115.787 501.148 115.785 501.068 115.753C500.988 115.722 500.922 115.663 500.881 115.587C500.738 115.312 500.564 115.133 500.358 115.049C500.148 114.964 499.942 115.037 499.738 115.267C499.434 115.612 499.222 116.072 499.104 116.648C499.094 116.695 499.068 116.738 499.031 116.769C498.993 116.799 498.946 116.816 498.898 116.817C498.849 116.818 498.802 116.802 498.764 116.772C498.726 116.742 498.699 116.7 498.688 116.653C498.546 116.047 498.612 115.431 498.886 114.805C498.9 114.772 498.905 114.735 498.898 114.7C498.892 114.664 498.875 114.631 498.85 114.605C498.825 114.579 498.793 114.561 498.758 114.553C498.723 114.545 498.686 114.548 498.652 114.561C497.339 115.049 496.376 115.793 495.764 116.795C495.691 116.914 495.579 117.003 495.446 117.048C495.314 117.093 495.169 117.089 495.038 117.038C494.73 116.92 494.409 116.712 494.073 116.414C493.962 116.317 493.82 116.263 493.673 116.26C493.525 116.257 493.381 116.306 493.266 116.399C492.348 117.14 491.475 117.216 490.855 116.008C490.297 114.911 491.211 113.363 490.845 112.693C490.2 111.536 488.896 112.521 487.794 112.236C487.732 112.22 487.676 112.184 487.636 112.135C487.595 112.086 487.573 112.025 487.571 111.962C487.537 111.018 487.794 110.081 488.343 109.15C488.393 109.066 488.42 108.97 488.419 108.871C488.419 108.773 488.392 108.677 488.341 108.593C488.29 108.508 488.217 108.439 488.13 108.392C488.042 108.346 487.944 108.323 487.845 108.328L486.165 108.409C486.067 108.415 485.975 108.456 485.906 108.524C485.837 108.592 485.795 108.683 485.789 108.78L485.723 109.714C485.719 109.777 485.694 109.837 485.653 109.885C485.612 109.934 485.556 109.968 485.495 109.983L483.688 110.439C483.586 110.467 483.478 110.472 483.372 110.454C483.267 110.437 483.165 110.397 483.073 110.338C481.769 109.495 480.911 108.566 481.124 106.764C481.26 105.624 481.312 104.884 481.282 104.546C481.274 104.447 481.292 104.348 481.335 104.258C481.378 104.168 481.443 104.091 481.525 104.033L483.063 102.988C483.292 102.832 483.56 102.746 483.835 102.739C484.573 102.719 485.251 102.813 485.87 103.023C485.953 103.052 486.042 103.056 486.127 103.034C486.212 103.012 486.289 102.966 486.348 102.901C486.832 102.37 487.706 102.142 488.972 102.216C489.009 102.219 489.047 102.228 489.084 102.241L490.627 102.785C490.692 102.808 490.75 102.847 490.796 102.899C490.841 102.951 490.872 103.013 490.886 103.079C491.079 103.955 491.617 104.791 492.5 105.587C492.524 105.608 492.552 105.622 492.583 105.63C492.614 105.638 492.646 105.638 492.677 105.63C492.708 105.623 492.736 105.608 492.76 105.587C492.784 105.566 492.803 105.54 492.815 105.51C493.282 104.338 492.622 103.231 492.063 102.038C492.005 101.914 491.991 101.774 492.024 101.64C492.057 101.507 492.136 101.389 492.246 101.307L495.632 98.7998C495.709 98.7424 495.771 98.6665 495.811 98.5795C495.851 98.4925 495.868 98.3971 495.86 98.3023C495.847 98.1196 495.788 97.9064 495.683 97.6627C495.665 97.6225 495.656 97.5791 495.655 97.5352C495.655 97.4913 495.663 97.4478 495.68 97.4071C495.696 97.3665 495.721 97.3295 495.752 97.2985C495.783 97.2674 495.82 97.2428 495.86 97.2262L496.216 97.079C496.315 97.0359 496.4 96.9634 496.459 96.8709L497.505 95.216C497.555 95.136 497.624 95.0693 497.705 95.0216C497.787 94.9738 497.878 94.9465 497.972 94.9419L499.348 94.8759C499.393 94.8734 499.438 94.861 499.478 94.8394C499.519 94.8179 499.554 94.7878 499.581 94.7514C499.608 94.715 499.627 94.6731 499.636 94.6288C499.644 94.5845 499.643 94.5389 499.632 94.4952C499.507 93.9876 499.527 93.5798 499.693 93.2719C499.737 93.191 499.799 93.1209 499.873 93.0665C499.948 93.0121 500.034 92.9748 500.124 92.9572C500.947 92.7981 501.561 92.5951 501.967 92.348C501.997 92.3294 502.032 92.3182 502.067 92.3153C502.103 92.3123 502.138 92.3177 502.171 92.3311C502.204 92.3444 502.234 92.3652 502.257 92.392C502.281 92.4187 502.298 92.4506 502.307 92.4851L502.54 93.3988C502.547 93.4218 502.558 93.443 502.574 93.4611C502.59 93.4791 502.609 93.4935 502.631 93.5032C502.653 93.5129 502.676 93.5176 502.7 93.5171C502.724 93.5166 502.748 93.5109 502.769 93.5003C503.889 92.9318 505.094 92.5578 506.383 92.3785C506.461 92.3662 506.534 92.3312 506.593 92.278C506.651 92.2248 506.693 92.1556 506.713 92.079C506.784 91.815 506.715 91.5731 506.505 91.3531C506.478 91.3245 506.446 91.3017 506.41 91.2861C506.375 91.2705 506.336 91.2625 506.297 91.2625C506.258 91.2625 506.219 91.2705 506.183 91.2861C506.148 91.3017 506.115 91.3245 506.089 91.3531C505.737 91.722 505.458 91.7863 505.251 91.546C505.153 91.4343 504.693 91.2668 503.87 91.0435C503.6 90.9724 503.527 90.7897 503.652 90.4952C503.705 90.3701 503.722 90.2316 503.703 90.0966C503.683 89.9616 503.627 89.8358 503.541 89.7347C503.456 89.6336 503.345 89.5614 503.221 89.527C503.097 89.4926 502.967 89.4974 502.845 89.5409C501.204 90.1298 500.329 90.4343 500.221 90.4546C500.201 90.458 500.18 90.4546 500.162 90.4449C500.144 90.4352 500.13 90.4198 500.122 90.4012C500.114 90.3825 500.112 90.3616 500.117 90.3419C500.122 90.3221 500.134 90.3046 500.15 90.2922C501.241 89.3886 502.53 88.2262 503.982 88.5612C504.079 88.5831 504.165 88.6367 504.227 88.7132C504.288 88.7898 504.322 88.8847 504.322 88.9825V89.211C504.322 89.2649 504.336 89.318 504.362 89.3653C504.388 89.4126 504.425 89.4525 504.47 89.4814C504.515 89.5103 504.567 89.5272 504.62 89.5305C504.673 89.5338 504.726 89.5234 504.774 89.5003C505.918 88.9487 507.016 88.414 508.068 87.8963C508.329 87.7677 508.534 87.8083 508.683 88.0181C508.705 88.0476 508.734 88.0713 508.767 88.0872C508.801 88.103 508.838 88.1105 508.874 88.109C508.911 88.1075 508.947 88.0971 508.979 88.0786C509.011 88.0601 509.039 88.0341 509.058 88.0028L509.586 87.1653C509.61 87.126 509.626 87.082 509.632 87.0362C509.638 86.9904 509.634 86.9438 509.621 86.8996C509.607 86.8554 509.585 86.8146 509.554 86.7799C509.524 86.7452 509.486 86.7173 509.444 86.6983C508.991 86.502 508.461 86.0858 507.855 85.4495C507.769 85.3563 507.66 85.2865 507.541 85.2465L506.368 84.8303C506.305 84.807 506.249 84.7686 506.205 84.7186L503.749 81.9927C503.708 81.9473 503.656 81.912 503.599 81.8897C503.542 81.8673 503.481 81.8585 503.42 81.8639C503.359 81.8693 503.3 81.8888 503.248 81.9208C503.196 81.9529 503.152 81.9966 503.119 82.0485C502.774 82.5968 502.326 82.947 501.774 83.0993C501.605 83.1459 501.426 83.1565 501.254 83.1301C501.082 83.1037 500.92 83.0411 500.783 82.9476C500.647 82.8541 500.539 82.7324 500.468 82.5928C500.397 82.4531 500.367 82.2995 500.378 82.145C500.385 82.0265 500.354 81.8641 500.287 81.6577C500.262 81.5811 500.211 81.5152 500.144 81.4709C500.077 81.4267 499.996 81.4066 499.916 81.414C499.72 81.4343 498.962 81.1822 497.642 80.6577C497.03 80.414 496.2 80.4005 495.155 80.6171C495.052 80.6378 494.959 80.6895 494.887 80.7649C494.815 80.8403 494.769 80.9358 494.754 81.0384L494.49 82.8303C494.485 82.8583 494.487 82.8872 494.496 82.9146C494.505 82.9419 494.52 82.967 494.541 82.9876L495.241 83.6881C495.338 83.7853 495.409 83.9048 495.449 84.0359C495.489 84.1671 495.496 84.306 495.469 84.4401C495.442 84.5742 495.383 84.6994 495.296 84.8047C495.21 84.91 495.098 84.992 494.972 85.0435C494.573 85.2059 494.146 85.2499 493.693 85.1754C493.664 85.1703 493.634 85.1735 493.607 85.1848C493.58 85.196 493.557 85.2148 493.54 85.2389C493.524 85.263 493.515 85.2914 493.514 85.3207C493.513 85.3499 493.52 85.3788 493.535 85.4039C493.86 85.9825 494.062 86.4276 494.139 86.7389C494.184 86.9226 494.162 87.1164 494.078 87.2862C493.995 87.4561 493.854 87.5913 493.682 87.6681C493.51 87.7449 493.316 87.7585 493.135 87.7065C492.954 87.6545 492.798 87.5402 492.693 87.3836L491.337 85.3937C491.294 85.3302 491.238 85.2771 491.172 85.2385C491.106 85.1998 491.033 85.1765 490.957 85.1704C489.106 85.035 487.089 84.5595 484.906 83.744C484.405 83.5578 483.926 83.2905 483.469 82.9419C483.363 82.8611 483.276 82.7574 483.215 82.6386C483.154 82.5198 483.121 82.3889 483.117 82.2557C483.114 82.1225 483.141 81.9904 483.196 81.8693C483.25 81.7482 483.332 81.6412 483.434 81.5561C484.469 80.6881 486.038 79.1754 487.738 79.3379C487.831 79.3467 487.924 79.3245 488.003 79.2748C488.081 79.2251 488.14 79.1508 488.17 79.0638L488.358 78.5308C488.37 78.4975 488.391 78.4681 488.418 78.4454C488.445 78.4227 488.478 78.4075 488.513 78.4013C488.548 78.3952 488.584 78.3983 488.617 78.4103C488.65 78.4223 488.68 78.4428 488.703 78.4699C489.065 78.9098 489.185 79.277 489.063 79.5714C489.051 79.6034 489.046 79.6381 489.05 79.6723C489.053 79.7066 489.065 79.7392 489.084 79.7674C489.104 79.7956 489.129 79.8184 489.159 79.8338C489.189 79.8492 489.223 79.8567 489.256 79.8556C489.926 79.8404 490.891 78.6983 491.718 79.6374C491.908 79.8506 492.09 79.9605 492.266 79.9673C492.564 79.9809 492.75 79.8996 492.825 79.7237C492.847 79.6733 492.85 79.6163 492.834 79.5631C492.817 79.5099 492.781 79.4642 492.733 79.4343C491.583 78.7237 490.356 78.3057 489.053 78.1805C488.983 78.1742 488.917 78.1397 488.872 78.0845C488.826 78.0294 488.804 77.9581 488.81 77.8861V77.8759C488.815 77.8145 488.844 77.7574 488.89 77.7167C488.936 77.676 488.997 77.6548 489.058 77.6577C490.551 77.7135 491.124 77.7947 492.363 77.2414C492.401 77.2244 492.435 77.1979 492.46 77.1645C492.485 77.131 492.502 77.0917 492.508 77.0501C492.514 77.0085 492.51 76.9661 492.495 76.9268C492.48 76.8875 492.456 76.8525 492.424 76.8252L491.764 76.2617C491.716 76.2219 491.682 76.1688 491.666 76.1091C491.649 76.0495 491.651 75.9861 491.671 75.9271C491.691 75.8681 491.729 75.8162 491.779 75.7782C491.829 75.7401 491.889 75.7176 491.952 75.7135L493.414 75.6424C493.478 75.6392 493.541 75.6193 493.595 75.5845C493.65 75.5498 493.694 75.5015 493.723 75.4445C493.784 75.3294 493.816 75.2668 493.82 75.2567C493.85 75.22 493.888 75.1903 493.931 75.1694C493.973 75.1485 494.02 75.137 494.068 75.1355C494.115 75.1341 494.162 75.1428 494.206 75.161C494.25 75.1793 494.29 75.2067 494.322 75.2414C494.529 75.4546 494.772 75.6001 495.053 75.678C495.456 75.7863 495.681 75.9775 495.728 76.2516C495.772 76.5291 495.623 76.793 495.282 77.0435C495.247 77.0678 495.221 77.1029 495.208 77.1433C495.195 77.1838 495.196 77.2273 495.211 77.2672C495.225 77.3071 495.252 77.3411 495.288 77.364C495.324 77.3869 495.366 77.3973 495.409 77.3937C495.879 77.3599 496.249 77.1873 496.52 76.8759C496.957 76.3683 497.596 76.3785 498.002 76.749C498.029 76.7736 498.049 76.8047 498.06 76.8393C498.07 76.8738 498.072 76.9105 498.064 76.9459C498.057 76.9813 498.04 77.014 498.016 77.0409C497.991 77.0678 497.961 77.0879 497.926 77.0993C497.446 77.255 497.007 77.5714 496.612 78.0485C496.513 78.1636 496.379 78.2422 496.231 78.2719C495.906 78.3328 495.542 78.3243 495.139 78.2465C494.855 78.1924 494.649 78.2364 494.52 78.3785C494.405 78.5071 494.346 78.7355 494.343 79.0638C494.342 79.1081 494.352 79.152 494.372 79.1917C494.392 79.2314 494.42 79.2658 494.456 79.2921C494.492 79.3184 494.533 79.3358 494.577 79.3429C494.621 79.35 494.666 79.3465 494.708 79.3328C495.557 79.0553 496.518 79.0688 497.591 79.3734C499.612 79.9487 500.801 80.3193 501.16 80.4851C501.329 80.5668 501.525 80.5831 501.708 80.5308C502.368 80.3379 502.948 80.2685 503.449 80.3226C503.513 80.329 503.577 80.3154 503.632 80.2839C503.688 80.2523 503.733 80.2044 503.76 80.1465C503.787 80.0886 503.796 80.0238 503.785 79.9608C503.774 79.8978 503.743 79.8398 503.698 79.7947C503.332 79.436 502.804 79.0688 502.114 78.6932C502.051 78.6587 501.995 78.6108 501.951 78.5537C501.907 78.4966 501.878 78.432 501.864 78.3655C501.851 78.299 501.854 78.2326 501.874 78.1721C501.893 78.1115 501.929 78.0587 501.977 78.0181C502.065 77.947 502.227 77.9487 502.464 78.0232C503.046 78.2025 503.522 78.4106 503.891 78.6475C504.035 78.7408 504.204 78.7891 504.377 78.7864C504.549 78.7837 504.718 78.7301 504.86 78.6323L505.647 78.0993C505.692 78.0675 505.726 78.0232 505.746 77.9719C505.766 77.9206 505.77 77.8646 505.758 77.8109C505.746 77.7572 505.719 77.7083 505.679 77.6702C505.64 77.6321 505.59 77.6065 505.535 77.5968C504.353 77.3937 503.596 76.4292 502.211 76.5358C502.1 76.544 501.99 76.5128 501.9 76.4478C501.81 76.3829 501.745 76.2882 501.718 76.1805L501.495 75.3125C501.468 75.2038 501.409 75.106 501.326 75.0324C501.242 74.9588 501.138 74.913 501.028 74.9013C498.984 74.6611 496.95 74.013 494.926 72.9572C494.747 72.8673 494.547 72.8253 494.348 72.8353L490.195 73.0384C490.157 73.0403 490.119 73.0499 490.084 73.0665C490.049 73.0831 490.017 73.1065 489.991 73.1353C489.966 73.164 489.946 73.1976 489.933 73.2341C489.92 73.2707 489.914 73.3094 489.916 73.348C489.933 73.7947 489.716 74.1111 489.266 74.2973C489.229 74.3122 489.188 74.3186 489.148 74.3158C489.108 74.313 489.069 74.3012 489.034 74.2812C488.998 74.2612 488.968 74.2335 488.945 74.2003C488.922 74.1671 488.907 74.1291 488.901 74.0891C488.806 73.4428 488.862 72.9436 489.068 72.5917C489.124 72.4959 489.204 72.4164 489.3 72.3612C489.396 72.3059 489.505 72.2769 489.617 72.277H492.551C492.595 72.2755 492.638 72.2595 492.672 72.2314C492.707 72.2033 492.731 72.1646 492.741 72.1214C492.752 72.0782 492.748 72.0327 492.73 71.9921C492.712 71.9514 492.681 71.9177 492.642 71.8962C492.019 71.5612 491.415 71.4969 490.83 71.7034ZM535.058 70.3023L534.82 70.2871C534.715 70.2817 534.613 70.2461 534.528 70.1846C534.442 70.1231 534.376 70.0383 534.338 69.9403C534.299 69.8424 534.29 69.7354 534.31 69.6321C534.331 69.5289 534.381 69.4338 534.454 69.3582C535.574 68.1873 536.97 67.1907 538.642 66.3683C538.735 66.3221 538.812 66.249 538.863 66.1586C538.914 66.0681 538.936 65.9645 538.927 65.861C538.919 65.7576 538.879 65.6592 538.814 65.5786C538.748 65.498 538.66 65.4389 538.561 65.4089C537.156 64.9758 535.928 65.2499 534.876 66.2313C534.53 66.5528 534.009 66.6137 533.312 66.414C533.242 66.3942 533.179 66.3542 533.132 66.299C533.085 66.2438 533.056 66.176 533.048 66.1044C532.903 64.8489 532.512 63.8032 531.876 62.9673C531.809 62.8794 531.723 62.8083 531.625 62.7598C531.526 62.7113 531.417 62.6867 531.307 62.6881C525.04 62.7524 520.278 62.8303 517.023 62.9216C516.018 62.9487 515.331 63.2787 514.962 63.9115C514.789 64.2093 514.62 64.3311 514.454 64.277C514.153 64.1754 513.935 64.0198 513.799 63.81C513.745 63.7236 513.664 63.6581 513.568 63.624C513.472 63.5899 513.367 63.5893 513.27 63.6222C513.174 63.6551 513.092 63.7196 513.036 63.8053C512.981 63.891 512.957 63.9928 512.967 64.0942C513.079 65.5054 512.221 65.9216 510.972 65.5511C509.165 65.013 506.393 65.1196 505.2 66.4242C504.505 67.1856 503.703 66.4089 502.911 67.7947C502.535 68.4597 501.728 68.343 501.139 68.8759C500.419 69.5325 499.451 69.8336 498.236 69.7795C498.166 69.7767 498.098 69.801 498.046 69.8474C497.994 69.8938 497.962 69.9587 497.957 70.0282V70.0485C497.954 70.0875 497.959 70.1267 497.972 70.1636C497.985 70.2004 498.006 70.2342 498.032 70.2628C498.059 70.2914 498.091 70.3142 498.127 70.3297C498.163 70.3452 498.202 70.3532 498.241 70.3531C499.28 70.3633 500.099 70.7423 500.698 71.4902C500.747 71.5533 500.816 71.5988 500.895 71.6198C500.974 71.6408 501.057 71.6363 501.134 71.6069C501.324 71.5358 501.512 71.4242 501.698 71.2719C501.825 71.1675 501.989 71.1166 502.155 71.1298C504.079 71.2668 506.17 71.1298 508.657 72.2059C508.838 72.2846 508.998 72.4041 509.125 72.5548C509.251 72.7056 509.339 72.8834 509.383 73.0739C509.556 73.8184 509.781 74.546 510.058 75.2567C510.327 75.947 510.845 76.4394 510.891 76.9673C510.925 77.3463 511.101 77.7778 511.419 78.2617C512.823 80.4005 514.808 81.7034 517.373 82.1704C517.501 82.1943 517.633 82.1801 517.753 82.1296C517.873 82.079 517.976 81.9944 518.048 81.8861C519.002 80.4648 519.901 79.0435 521.469 78.5561C522.908 78.1061 524.124 77.6814 525.119 77.282C525.456 77.1472 525.809 77.0534 526.17 77.0028C528.119 76.7355 530.148 76.1721 532.256 75.3125C532.34 75.2789 532.41 75.2192 532.457 75.1424C532.503 75.0655 532.524 74.9756 532.515 74.8861C532.485 74.5375 532.351 74.1924 532.114 73.8506C532.06 73.7737 532.029 73.6832 532.024 73.5893C532.019 73.4955 532.041 73.402 532.087 73.3195C532.133 73.2371 532.201 73.1689 532.284 73.1228C532.367 73.0767 532.461 73.0545 532.556 73.0587L534.211 73.1501C534.259 73.153 534.308 73.1456 534.354 73.1283C534.4 73.111 534.441 73.0841 534.476 73.0496C534.51 73.015 534.537 72.9736 534.554 72.9279C534.572 72.8822 534.579 72.8333 534.576 72.7846C534.518 71.925 534.738 71.2499 535.236 70.7592C535.272 70.7222 535.297 70.6756 535.307 70.6249C535.318 70.5743 535.313 70.5217 535.294 70.4735C535.276 70.4253 535.243 70.3835 535.202 70.3531C535.16 70.3228 535.11 70.3051 535.058 70.3023ZM532.292 77.6526C532.112 77.6771 531.945 77.7617 531.819 77.8926C531.693 78.0235 531.615 78.1932 531.597 78.3741C531.58 78.555 531.624 78.7365 531.722 78.8893C531.82 79.0421 531.968 79.1573 532.139 79.216L534.53 79.9978C534.67 80.0475 534.823 80.0563 534.972 80.0232C535.81 79.8404 537.414 79.4089 538.018 78.7693C538.077 78.7064 538.119 78.6287 538.139 78.5442C538.158 78.4597 538.155 78.3715 538.129 78.2888C538.103 78.206 538.056 78.1316 537.992 78.0733C537.927 78.015 537.849 77.9749 537.764 77.9572C537.199 77.8387 536.16 77.8641 534.647 78.0333C533.83 78.1196 532.82 77.5866 532.292 77.6526ZM511.287 90.1653C510.647 88.9115 509.632 89.1247 508.774 88.7135C508.702 88.6793 508.623 88.6602 508.543 88.6573C508.463 88.6545 508.384 88.6679 508.309 88.6969C508.234 88.7259 508.166 88.7698 508.109 88.8259C508.052 88.8819 508.007 88.9491 507.977 89.0232L507.566 90.013C507.544 90.0662 507.536 90.1239 507.542 90.1811C507.548 90.2382 507.568 90.293 507.6 90.3407C507.632 90.3883 507.675 90.4273 507.726 90.4543C507.777 90.4812 507.833 90.4953 507.891 90.4952H511.084C511.122 90.495 511.16 90.4848 511.194 90.4658C511.228 90.4468 511.256 90.4195 511.277 90.3865C511.297 90.3535 511.308 90.3159 511.31 90.2772C511.312 90.2385 511.304 90.2 511.287 90.1653ZM554.145 95.6018C554.145 95.5125 554.127 95.4241 554.093 95.3415C554.059 95.259 554.009 95.184 553.945 95.1209C553.882 95.0577 553.807 95.0076 553.725 94.9734C553.642 94.9392 553.554 94.9216 553.464 94.9216C553.284 94.9216 553.111 94.9933 552.983 95.1209C552.856 95.2484 552.784 95.4214 552.784 95.6018C552.784 95.7822 552.856 95.9552 552.983 96.0828C553.111 96.2104 553.284 96.282 553.464 96.282C553.554 96.282 553.642 96.2644 553.725 96.2303C553.807 96.1961 553.882 96.146 553.945 96.0828C554.009 96.0196 554.059 95.9447 554.093 95.8621C554.127 95.7796 554.145 95.6912 554.145 95.6018ZM558.063 97.9013L558.261 97.282C558.27 97.2554 558.273 97.2273 558.271 97.1993C558.269 97.1713 558.261 97.1441 558.249 97.1191C558.236 97.0941 558.218 97.0718 558.197 97.0536C558.176 97.0354 558.151 97.0216 558.124 97.013L558.048 96.9927C557.523 96.8229 557.003 96.7074 556.603 96.6713C556.203 96.6351 555.954 96.6813 555.911 96.7998L555.876 96.9165C555.837 97.037 556.009 97.2201 556.355 97.4257C556.7 97.6313 557.191 97.8425 557.718 98.013L557.794 98.0384C557.821 98.0471 557.849 98.0504 557.877 98.0483C557.905 98.0461 557.932 98.0384 557.957 98.0257C557.982 98.013 558.004 97.9954 558.023 97.9741C558.041 97.9527 558.055 97.928 558.063 97.9013ZM490.292 107.622C490.255 107.654 490.229 107.696 490.218 107.744C490.207 107.791 490.211 107.841 490.23 107.886C490.249 107.931 490.282 107.97 490.324 107.996C490.366 108.022 490.415 108.035 490.464 108.033C490.86 108.006 491.549 107.988 492.53 107.977C493.713 107.962 494.769 109.231 495.992 109.399C496.078 109.411 496.166 109.396 496.242 109.354C496.318 109.313 496.379 109.247 496.415 109.169C496.451 109.09 496.46 109.001 496.442 108.916C496.423 108.831 496.378 108.755 496.312 108.698C495.784 108.247 495.068 108.247 494.469 107.911C493.038 107.099 491.515 106.546 490.292 107.622ZM497.307 110.287C498.356 110.737 499.507 110.908 500.759 110.8C500.797 110.797 500.834 110.786 500.868 110.768C500.902 110.75 500.932 110.725 500.957 110.695C500.981 110.665 500.999 110.631 501.009 110.594C501.02 110.557 501.023 110.518 501.018 110.48C500.764 108.622 498.322 109.109 497.261 109.906C497.231 109.93 497.207 109.961 497.192 109.997C497.177 110.032 497.172 110.071 497.176 110.11C497.181 110.148 497.195 110.185 497.218 110.216C497.241 110.247 497.272 110.271 497.307 110.287Z" fill="white" fill-opacity="0.7"/>
<path d="M473.16 107.277C473.187 107.285 473.216 107.284 473.243 107.275C473.27 107.266 473.293 107.249 473.31 107.227C473.327 107.205 473.336 107.178 473.336 107.151C473.337 107.123 473.328 107.096 473.312 107.074L471.023 103.714C471.004 103.685 470.991 103.653 470.984 103.619C470.978 103.586 470.978 103.551 470.985 103.518C470.992 103.485 471.006 103.454 471.026 103.426C471.045 103.399 471.07 103.376 471.099 103.358C471.315 103.223 471.537 103.279 471.764 103.526C473.568 105.499 474.683 106.673 475.109 107.049C475.38 107.29 475.575 107.606 475.667 107.957L475.972 109.11C476.001 109.221 476.07 109.317 476.165 109.379C478.229 110.746 480.104 111.722 481.789 112.308C481.857 112.331 481.93 112.338 482.001 112.329C482.072 112.319 482.141 112.293 482.2 112.252C482.884 111.785 483.444 111.77 483.881 112.206C484.845 113.171 485.796 113.678 486.733 113.729C487.982 113.8 488.886 114.379 488.967 115.516C488.975 115.634 489.011 115.749 489.072 115.851C489.132 115.953 489.216 116.04 489.317 116.105L492.073 117.841C492.131 117.877 492.196 117.901 492.264 117.912C492.331 117.923 492.4 117.92 492.467 117.903C492.533 117.887 492.595 117.857 492.65 117.815C492.705 117.774 492.75 117.722 492.784 117.663C492.991 117.301 493.246 117.076 493.551 116.988C493.737 116.934 493.975 117.128 494.266 117.572C495.255 119.074 495.19 120.492 494.073 121.825C493.713 122.262 493.084 122.592 492.708 123.023C492.461 123.308 492.436 123.597 492.632 123.891C493.048 124.524 492.938 125.23 492.302 126.008C492.264 126.054 492.236 126.107 492.219 126.164C492.202 126.221 492.196 126.281 492.202 126.34C492.208 126.399 492.226 126.457 492.255 126.51C492.283 126.563 492.321 126.61 492.368 126.648L493.302 127.409C493.349 127.449 493.387 127.498 493.414 127.551L496.058 132.754C496.138 132.91 496.261 133.039 496.414 133.125C498.292 134.196 500.099 134.653 499.926 136.932C499.75 139.247 499.358 141.846 498.749 144.729C498.495 145.937 497.972 146.942 497.683 147.937C497.619 148.136 497.583 148.342 497.576 148.551L497.454 152.358C497.451 152.441 497.423 152.521 497.373 152.587L496.586 153.648C496.521 153.735 496.477 153.836 496.457 153.943C496.437 154.05 496.441 154.161 496.469 154.267C496.557 154.568 496.542 155.091 496.424 155.835C496.4 155.972 496.414 156.112 496.464 156.242L497.19 158.206C497.2 158.232 497.204 158.26 497.2 158.288C497.197 158.315 497.187 158.341 497.171 158.364C497.155 158.387 497.133 158.405 497.108 158.417C497.083 158.43 497.056 158.436 497.028 158.434C496.889 158.428 496.764 158.392 496.652 158.328C487.106 152.575 480.094 145.067 475.617 135.805C471.024 126.313 469.417 116.287 470.794 105.729C470.801 105.68 470.822 105.634 470.854 105.597C470.887 105.56 470.93 105.534 470.977 105.522C471.025 105.51 471.074 105.512 471.119 105.529C471.165 105.546 471.204 105.577 471.231 105.617C471.867 106.521 472.51 107.074 473.16 107.277Z" fill="white" fill-opacity="0.7"/>
<path d="M100.053 233.739H96.4288C96.3054 233.739 96.2055 233.839 96.2055 233.962V265.759C96.2055 265.883 96.3054 265.983 96.4288 265.983H100.053C100.177 265.983 100.277 265.883 100.277 265.759V233.962C100.277 233.839 100.177 233.739 100.053 233.739Z" fill="white" fill-opacity="0.7"/>
<path d="M120.683 246.5C120.693 246.513 120.708 246.523 120.724 246.528C120.741 246.533 120.758 246.533 120.774 246.528C120.789 246.523 120.803 246.513 120.812 246.5C120.821 246.487 120.826 246.471 120.825 246.455V233.977C120.825 233.916 120.849 233.856 120.893 233.812C120.937 233.769 120.996 233.744 121.058 233.744H124.683C124.738 233.744 124.791 233.766 124.83 233.805C124.869 233.844 124.891 233.897 124.891 233.952V265.932C124.891 265.949 124.884 265.966 124.871 265.978C124.859 265.991 124.842 265.998 124.825 265.998H121.546C121.503 265.998 121.462 265.982 121.431 265.952C121.399 265.923 121.381 265.883 121.378 265.84L121.185 262.714C121.185 262.688 121.176 262.663 121.16 262.642C121.144 262.622 121.122 262.608 121.096 262.601C121.071 262.594 121.044 262.596 121.019 262.605C120.994 262.614 120.972 262.631 120.957 262.653C119.464 264.927 117.331 266.182 114.556 266.419C101.2 267.561 100.683 244.049 113.81 243.5C116.612 243.384 118.962 244.282 120.683 246.5ZM108.398 254.795C108.327 258.313 109.921 262.51 113.672 262.998C117.05 263.434 119.315 262.023 120.469 258.764C120.81 257.805 120.769 256.054 120.789 255.059C120.81 254.064 120.931 252.318 120.632 251.343C119.617 248.037 117.414 246.531 114.023 246.825C110.251 247.15 108.474 251.272 108.398 254.795Z" fill="white" fill-opacity="0.7"/>
<path d="M412.835 246.5C412.846 246.513 412.86 246.523 412.876 246.528C412.893 246.533 412.91 246.533 412.926 246.528C412.942 246.523 412.955 246.513 412.964 246.5C412.973 246.487 412.978 246.471 412.977 246.455L412.947 233.978C412.947 233.916 412.971 233.856 413.015 233.812C413.059 233.769 413.118 233.744 413.18 233.744L416.804 233.739C416.859 233.739 416.911 233.76 416.95 233.798C416.989 233.836 417.011 233.888 417.013 233.942L417.089 265.912C417.089 265.929 417.082 265.946 417.069 265.958C417.057 265.971 417.04 265.978 417.023 265.978L413.744 265.988C413.701 265.988 413.66 265.972 413.629 265.942C413.597 265.913 413.579 265.873 413.576 265.83L413.378 262.703C413.379 262.676 413.37 262.65 413.353 262.628C413.337 262.606 413.314 262.591 413.288 262.584C413.261 262.577 413.234 262.579 413.209 262.589C413.184 262.6 413.163 262.619 413.15 262.643C411.661 264.92 409.53 266.181 406.759 266.424C393.409 267.597 392.835 244.094 405.957 243.516C408.759 243.394 411.109 244.287 412.835 246.5ZM400.612 254.825C400.556 258.343 402.175 262.531 405.926 262.993C409.304 263.412 411.561 261.991 412.698 258.729C413.033 257.764 412.982 256.013 412.997 255.018C413.013 254.023 413.119 252.277 412.815 251.302C411.782 248.006 409.573 246.514 406.185 246.825C402.419 247.17 400.667 251.302 400.612 254.825Z" fill="white" fill-opacity="0.7"/>
<path d="M497.738 241.115H495.058C495.026 241.114 494.994 241.105 494.967 241.088C494.939 241.071 494.916 241.048 494.901 241.019C494.885 240.991 494.878 240.959 494.879 240.927C494.879 240.894 494.889 240.863 494.906 240.835L498.835 234.592C498.851 234.565 498.875 234.543 498.902 234.528C498.93 234.513 498.961 234.505 498.992 234.505H503.109C503.143 234.506 503.177 234.516 503.206 234.535C503.234 234.554 503.257 234.581 503.272 234.612C503.286 234.643 503.291 234.678 503.287 234.712C503.282 234.746 503.268 234.778 503.246 234.805L497.881 241.049C497.863 241.069 497.842 241.086 497.817 241.098C497.792 241.109 497.766 241.115 497.738 241.115Z" fill="white" fill-opacity="0.7"/>
<path d="M302.525 239.48C300.535 238.631 298.381 238.253 296.063 238.348C289.992 238.602 285.83 242.318 285.038 248.465C284.231 254.714 286.439 260.942 293.033 262.546C296.197 263.314 299.388 263.079 302.606 261.84C302.653 261.822 302.703 261.814 302.753 261.817C302.802 261.82 302.851 261.833 302.895 261.856C302.939 261.88 302.978 261.912 303.009 261.951C303.04 261.99 303.062 262.036 303.073 262.084L303.728 264.653C303.756 264.765 303.739 264.883 303.683 264.984C303.626 265.085 303.534 265.161 303.424 265.196C290.845 269.181 279.205 263.353 280.703 248.693C281.906 236.947 293.307 232.551 303.49 236.018C303.595 236.054 303.683 236.129 303.735 236.228C303.787 236.326 303.799 236.44 303.769 236.546L303.002 239.252C302.989 239.3 302.966 239.345 302.933 239.383C302.901 239.422 302.861 239.453 302.816 239.475C302.771 239.496 302.721 239.508 302.671 239.509C302.621 239.51 302.571 239.5 302.525 239.48Z" fill="white" fill-opacity="0.7"/>
<path d="M38.6369 240.957C38.532 241.076 38.2884 242.077 37.906 243.962C37.6996 244.994 37.4677 245.974 37.2106 246.901C34.73 255.893 33.021 262.145 32.0836 265.658C32.059 265.751 32.0044 265.833 31.9282 265.892C31.852 265.95 31.7585 265.982 31.6623 265.983H28.0126C27.93 265.983 27.8497 265.956 27.7844 265.905C27.7191 265.854 27.6725 265.783 27.6522 265.703L20.0024 235.516C19.9993 235.503 19.9992 235.489 20.0021 235.476C20.005 235.463 20.0109 235.451 20.0192 235.441C20.0276 235.431 20.0382 235.422 20.0502 235.417C20.0623 235.411 20.0755 235.409 20.0887 235.409H24.1953C24.23 235.409 24.2638 235.42 24.2913 235.441C24.3189 235.463 24.3387 235.492 24.3476 235.526L30.109 260.353C30.1114 260.359 30.1153 260.363 30.1203 260.366C30.1252 260.37 30.131 260.371 30.1369 260.371C30.1429 260.371 30.1487 260.37 30.1536 260.366C30.1586 260.363 30.1625 260.359 30.1649 260.353L36.5659 235.759C36.5938 235.654 36.6553 235.562 36.7406 235.496C36.826 235.429 36.9305 235.394 37.038 235.394H40.6979C40.7818 235.394 40.8632 235.423 40.9287 235.475C40.9942 235.528 41.0399 235.601 41.0583 235.683L46.8451 260.627C46.8497 260.642 46.8591 260.655 46.8719 260.664C46.8846 260.673 46.9 260.678 46.9155 260.677C46.9311 260.676 46.9461 260.671 46.9581 260.661C46.9702 260.651 46.9786 260.637 46.9821 260.622C47.0735 260.165 47.1141 259.231 47.2359 258.729C49.0092 251.257 50.9923 243.526 53.1852 235.536C53.1953 235.497 53.2177 235.462 53.2489 235.437C53.2802 235.412 53.3184 235.399 53.3578 235.399H57.2258C57.2405 235.399 57.2549 235.403 57.268 235.409C57.2811 235.416 57.2924 235.426 57.3013 235.437C57.3101 235.449 57.3161 235.463 57.3188 235.477C57.3216 235.492 57.321 235.506 57.3172 235.521L48.7892 265.734C48.7691 265.808 48.7254 265.874 48.6648 265.921C48.6042 265.968 48.5302 265.993 48.4542 265.993H44.7892C44.698 265.993 44.6094 265.962 44.5376 265.905C44.4658 265.848 44.4149 265.768 44.3933 265.678C41.8958 255.424 40.3205 248.867 39.6674 246.008C39.2715 244.282 39.0007 242.622 38.8552 241.028C38.8522 241.004 38.8424 240.982 38.8271 240.963C38.8118 240.945 38.7915 240.931 38.7686 240.924C38.7457 240.916 38.7212 240.915 38.6979 240.921C38.6746 240.927 38.6534 240.94 38.6369 240.957Z" fill="white" fill-opacity="0.7"/>
<path d="M139.109 265.754V235.627C139.109 235.597 139.115 235.566 139.127 235.538C139.139 235.51 139.156 235.484 139.177 235.462C139.199 235.44 139.225 235.423 139.253 235.411C139.281 235.4 139.312 235.394 139.343 235.394H155.5C155.562 235.394 155.621 235.418 155.665 235.462C155.709 235.506 155.733 235.565 155.733 235.627V238.597C155.733 238.659 155.709 238.718 155.665 238.762C155.621 238.806 155.562 238.83 155.5 238.83H143.403C143.342 238.83 143.282 238.855 143.238 238.899C143.195 238.942 143.17 239.002 143.17 239.064V248.12C143.17 248.182 143.195 248.241 143.238 248.285C143.282 248.329 143.342 248.353 143.403 248.353H154.754C154.816 248.353 154.875 248.378 154.919 248.422C154.963 248.465 154.987 248.525 154.987 248.587V251.419C154.987 251.481 154.963 251.54 154.919 251.584C154.875 251.628 154.816 251.653 154.754 251.653H143.403C143.342 251.653 143.282 251.677 143.238 251.721C143.195 251.765 143.17 251.824 143.17 251.886V262.333C143.17 262.395 143.195 262.454 143.238 262.498C143.282 262.542 143.342 262.566 143.403 262.566H156.129C156.191 262.566 156.251 262.591 156.294 262.635C156.338 262.678 156.363 262.738 156.363 262.8V265.754C156.363 265.816 156.338 265.875 156.294 265.919C156.251 265.963 156.191 265.988 156.129 265.988H139.343C139.312 265.988 139.281 265.982 139.253 265.97C139.225 265.958 139.199 265.941 139.177 265.919C139.156 265.898 139.139 265.872 139.127 265.843C139.115 265.815 139.109 265.785 139.109 265.754Z" fill="white" fill-opacity="0.7"/>
<path d="M478.002 240.353L469.114 265.5C469.09 265.567 469.046 265.625 468.988 265.666C468.93 265.707 468.86 265.729 468.789 265.729H466.205C466.093 265.729 465.982 265.694 465.89 265.628C465.797 265.563 465.726 265.47 465.688 265.363C462.361 256.006 459.62 247.646 457.464 240.282C457.464 240.279 457.462 240.277 457.46 240.276C457.457 240.274 457.454 240.274 457.452 240.274C457.449 240.275 457.447 240.277 457.445 240.279C457.444 240.282 457.443 240.284 457.444 240.287L456.084 265.83C456.082 265.871 456.065 265.91 456.034 265.938C456.004 265.967 455.963 265.983 455.921 265.983H452.211C452.196 265.983 452.181 265.98 452.167 265.974C452.154 265.968 452.141 265.959 452.131 265.948C452.121 265.937 452.114 265.924 452.109 265.91C452.104 265.896 452.103 265.881 452.104 265.866L454.205 235.708C454.211 235.624 454.248 235.546 454.31 235.488C454.373 235.43 454.455 235.399 454.54 235.399H459.018C459.106 235.399 459.192 235.426 459.265 235.476C459.337 235.526 459.393 235.596 459.424 235.678C462.652 244.223 465.343 252.197 467.495 259.602C467.505 259.639 467.527 259.671 467.558 259.694C467.588 259.717 467.625 259.73 467.663 259.731C467.701 259.731 467.738 259.719 467.769 259.697C467.8 259.675 467.823 259.643 467.835 259.607C468.388 257.911 469.129 255.049 470.013 252.546C471.173 249.257 473.227 243.651 476.175 235.729C476.212 235.63 476.278 235.545 476.364 235.485C476.451 235.425 476.553 235.393 476.657 235.394H481.139C481.222 235.393 481.302 235.424 481.362 235.48C481.423 235.536 481.459 235.612 481.464 235.693L483.327 265.845C483.329 265.864 483.326 265.882 483.32 265.899C483.314 265.916 483.305 265.932 483.292 265.945C483.28 265.959 483.265 265.969 483.248 265.977C483.232 265.984 483.214 265.988 483.195 265.988H479.449C479.406 265.988 479.365 265.971 479.334 265.942C479.303 265.913 479.284 265.873 479.282 265.83L478.028 240.358C478.027 240.356 478.025 240.354 478.023 240.352C478.021 240.35 478.019 240.349 478.017 240.349C478.014 240.348 478.011 240.348 478.009 240.349C478.006 240.35 478.004 240.351 478.002 240.353Z" fill="white" fill-opacity="0.7"/>
<path d="M531.901 240.424C533.311 240.424 534.454 239.281 534.454 237.871C534.454 236.461 533.311 235.318 531.901 235.318C530.491 235.318 529.348 236.461 529.348 237.871C529.348 239.281 530.491 240.424 531.901 240.424Z" fill="white" fill-opacity="0.7"/>
<path d="M68.5748 243.377C71.4583 243.629 74.1169 245.092 75.9656 247.444C77.8144 249.796 78.7019 252.845 78.433 255.918C78.2998 257.441 77.8868 258.923 77.2174 260.281C76.548 261.64 75.6353 262.847 74.5316 263.835C73.4279 264.823 72.1546 265.572 70.7846 266.039C69.4146 266.506 67.9746 266.682 66.5468 266.558C63.6633 266.305 61.0048 264.842 59.156 262.49C57.3072 260.138 56.4197 257.09 56.6886 254.016C56.8218 252.494 57.2349 251.012 57.9043 249.653C58.5737 248.295 59.4863 247.087 60.59 246.099C61.6938 245.111 62.967 244.362 64.337 243.895C65.7071 243.428 67.1471 243.252 68.5748 243.377ZM67.5649 246.495C65.8093 246.489 64.1226 247.373 62.8758 248.951C61.6289 250.53 60.924 252.675 60.9162 254.914C60.9123 256.022 61.0797 257.121 61.4088 258.146C61.7379 259.171 62.2222 260.104 62.8341 260.89C63.446 261.676 64.1736 262.3 64.9752 262.727C65.7768 263.154 66.6367 263.375 67.506 263.378C69.2615 263.385 70.9482 262.501 72.1951 260.922C73.442 259.343 74.1469 257.199 74.1547 254.96C74.1585 253.851 73.9912 252.753 73.6621 251.728C73.333 250.702 72.8487 249.77 72.2368 248.984C71.6248 248.198 70.8973 247.574 70.0957 247.147C69.2941 246.72 68.4341 246.498 67.5649 246.495Z" fill="white" fill-opacity="0.7"/>
<path d="M86.0024 247.668C86.4322 246.961 86.6572 246.59 86.6775 246.556C88.2004 244.241 90.2697 243.233 92.8856 243.531C92.9615 243.54 93.0314 243.576 93.082 243.633C93.1326 243.69 93.1603 243.764 93.1598 243.84V247.17C93.16 247.204 93.1531 247.237 93.1396 247.267C93.126 247.298 93.106 247.325 93.081 247.347C93.056 247.369 93.0265 247.386 92.9945 247.396C92.9626 247.405 92.9289 247.408 92.8958 247.404C88.444 246.866 86.2917 250.389 86.307 254.312C86.3137 255.676 86.3154 259.505 86.312 265.8C86.312 265.85 86.2928 265.897 86.2585 265.933C86.2242 265.968 86.1778 265.988 86.1293 265.988H82.4288C82.3736 265.988 82.3207 265.966 82.2816 265.927C82.2426 265.888 82.2207 265.835 82.2207 265.78V244.079C82.2207 244.064 82.2271 244.05 82.2385 244.04C82.2499 244.029 82.2654 244.023 82.2816 244.023H85.5354C85.5785 244.023 85.6198 244.04 85.6502 244.069C85.6807 244.099 85.6978 244.139 85.6978 244.181V247.582C85.696 247.618 85.7067 247.654 85.7281 247.684C85.7495 247.714 85.7804 247.736 85.8158 247.746C85.8511 247.756 85.8888 247.754 85.9227 247.739C85.9566 247.725 85.9847 247.7 86.0024 247.668Z" fill="white" fill-opacity="0.7"/>
<path d="M184.383 263.379C184.367 263.358 184.346 263.343 184.321 263.336C184.297 263.329 184.271 263.33 184.247 263.338C184.222 263.346 184.201 263.362 184.187 263.383C184.172 263.404 184.164 263.429 184.165 263.455V274.556C184.165 274.641 184.131 274.722 184.071 274.782C184.011 274.842 183.93 274.876 183.845 274.876H180.373C180.296 274.876 180.223 274.846 180.168 274.791C180.114 274.737 180.084 274.663 180.084 274.587V244.11C180.084 244.087 180.093 244.065 180.11 244.049C180.128 244.032 180.151 244.023 180.175 244.023H183.444C183.493 244.023 183.54 244.042 183.575 244.075C183.61 244.108 183.631 244.153 183.632 244.201L183.779 247.206C183.78 247.23 183.788 247.254 183.802 247.274C183.817 247.293 183.837 247.308 183.86 247.316C183.883 247.325 183.908 247.326 183.931 247.32C183.955 247.313 183.976 247.3 183.992 247.282C185.317 245.769 186.495 244.582 188.322 243.998C190.941 243.155 193.385 243.304 195.652 244.445C200.698 246.983 201.769 253.769 200.408 258.886C199.485 262.362 197.496 264.676 194.444 265.83C190.906 267.165 186.738 266.511 184.383 263.379ZM190.597 246.706C189.742 246.686 188.891 246.882 188.091 247.283C187.292 247.683 186.56 248.28 185.938 249.039C185.316 249.798 184.816 250.704 184.465 251.707C184.115 252.709 183.922 253.788 183.897 254.881C183.873 255.973 184.017 257.06 184.321 258.077C184.625 259.094 185.084 260.022 185.671 260.809C186.258 261.595 186.962 262.225 187.742 262.661C188.523 263.097 189.365 263.332 190.22 263.351C191.075 263.37 191.926 263.174 192.726 262.774C193.525 262.374 194.257 261.777 194.879 261.018C195.501 260.259 196.001 259.352 196.352 258.35C196.702 257.347 196.895 256.269 196.92 255.176C196.944 254.083 196.8 252.997 196.496 251.98C196.192 250.963 195.733 250.034 195.146 249.248C194.559 248.461 193.855 247.832 193.075 247.396C192.294 246.959 191.452 246.725 190.597 246.706Z" fill="white" fill-opacity="0.7"/>
<path d="M208.307 247.592C208.305 247.628 208.316 247.665 208.337 247.694C208.359 247.724 208.39 247.746 208.425 247.756C208.46 247.766 208.498 247.764 208.532 247.75C208.566 247.735 208.594 247.71 208.612 247.678C209.041 246.971 209.266 246.6 209.287 246.566C210.813 244.252 212.884 243.245 215.5 243.546C215.577 243.555 215.647 243.592 215.698 243.65C215.749 243.708 215.776 243.784 215.774 243.861L215.769 247.191C215.769 247.224 215.762 247.257 215.749 247.288C215.735 247.318 215.715 247.345 215.69 247.368C215.665 247.39 215.636 247.406 215.604 247.416C215.572 247.426 215.538 247.429 215.505 247.424C211.053 246.876 208.896 250.399 208.906 254.323C208.913 255.686 208.909 259.516 208.896 265.81C208.896 265.86 208.877 265.908 208.842 265.943C208.808 265.978 208.762 265.998 208.713 265.998L205.013 265.993C204.957 265.993 204.904 265.971 204.865 265.932C204.826 265.893 204.804 265.84 204.804 265.785L204.835 244.084C204.835 244.077 204.836 244.069 204.839 244.063C204.843 244.056 204.847 244.05 204.853 244.045C204.858 244.039 204.865 244.035 204.872 244.032C204.88 244.03 204.888 244.028 204.896 244.028H208.15C208.171 244.028 208.193 244.032 208.213 244.041C208.233 244.049 208.251 244.061 208.266 244.076C208.281 244.091 208.293 244.109 208.301 244.129C208.309 244.149 208.313 244.17 208.312 244.191L208.307 247.592Z" fill="white" fill-opacity="0.7"/>
<path d="M220.926 255.714C220.88 255.714 220.834 255.723 220.792 255.741C220.749 255.759 220.711 255.785 220.679 255.818C220.646 255.851 220.621 255.891 220.604 255.934C220.588 255.977 220.58 256.023 220.581 256.069C220.804 263.485 228.231 264.45 233.698 262.201C233.742 262.183 233.79 262.174 233.838 262.176C233.886 262.178 233.933 262.19 233.976 262.212C234.019 262.234 234.056 262.264 234.086 262.302C234.116 262.339 234.138 262.383 234.15 262.429L234.728 264.688C234.756 264.798 234.742 264.915 234.689 265.016C234.636 265.118 234.547 265.196 234.439 265.236C231.119 266.495 226.175 266.927 222.947 265.658C217.195 263.389 215.551 256.942 217.17 251.165C218.784 245.414 223.784 242.409 229.738 243.871C234.642 245.079 236.52 250.896 235.926 255.495C235.918 255.553 235.889 255.607 235.845 255.645C235.801 255.683 235.745 255.704 235.688 255.703L220.926 255.714ZM220.952 252.785H232.028C232.063 252.785 232.096 252.771 232.121 252.746C232.146 252.721 232.16 252.688 232.16 252.653V252.561C232.16 250.935 231.565 249.375 230.506 248.225C229.448 247.075 228.012 246.429 226.515 246.429H226.464C224.967 246.429 223.532 247.075 222.473 248.225C221.414 249.375 220.82 250.935 220.82 252.561V252.653C220.82 252.688 220.834 252.721 220.858 252.746C220.883 252.771 220.917 252.785 220.952 252.785Z" fill="white" fill-opacity="0.7"/>
<path d="M251.911 245.186L251.063 247.597C251.05 247.637 251.028 247.674 250.998 247.705C250.968 247.735 250.932 247.759 250.891 247.774C250.851 247.788 250.807 247.794 250.764 247.789C250.721 247.785 250.679 247.771 250.642 247.749C248.901 246.668 245.662 245.957 243.875 247.434C242.18 248.84 242.738 251.236 244.723 252.114C248.485 253.769 252.241 254.845 252.703 258.952C253.2 263.282 250.119 265.942 245.957 266.318C243.266 266.561 240.825 266.172 238.632 265.15C238.522 265.099 238.435 265.009 238.388 264.897C238.341 264.785 238.338 264.66 238.378 264.546L239.246 262.074C239.261 262.031 239.285 261.993 239.317 261.961C239.348 261.929 239.386 261.905 239.428 261.89C239.47 261.874 239.515 261.869 239.559 261.874C239.603 261.878 239.645 261.893 239.683 261.916C241.749 263.186 245.957 264.216 247.952 262.18C249.535 260.561 248.764 258.216 246.85 257.18C245.185 256.282 242.779 255.693 241.089 254.221C238.852 252.275 238.344 249.945 239.566 247.231C241.566 242.79 248.099 242.835 251.708 244.673C251.798 244.718 251.868 244.796 251.905 244.89C251.943 244.984 251.945 245.089 251.911 245.186Z" fill="white" fill-opacity="0.7"/>
<path d="M267.576 247.749C265.835 246.668 262.591 245.947 260.799 247.424C259.099 248.83 259.652 251.231 261.642 252.114C265.403 253.774 269.165 254.861 269.622 258.972C270.109 263.312 267.023 265.967 262.85 266.338C260.156 266.578 257.713 266.184 255.52 265.155C255.41 265.104 255.324 265.014 255.277 264.902C255.23 264.79 255.226 264.665 255.266 264.551L256.139 262.079C256.154 262.037 256.178 261.999 256.209 261.967C256.241 261.936 256.279 261.912 256.32 261.897C256.362 261.882 256.407 261.876 256.451 261.88C256.495 261.885 256.538 261.899 256.576 261.922C258.642 263.196 262.855 264.236 264.855 262.201C266.444 260.581 265.678 258.231 263.764 257.191C262.094 256.287 259.688 255.693 257.997 254.216C255.76 252.263 255.256 249.93 256.485 247.216C258.495 242.769 265.038 242.825 268.647 244.673C268.737 244.72 268.807 244.797 268.844 244.891C268.881 244.985 268.884 245.09 268.85 245.185L267.997 247.602C267.983 247.642 267.961 247.678 267.931 247.708C267.901 247.738 267.864 247.761 267.824 247.775C267.783 247.789 267.74 247.794 267.697 247.79C267.654 247.785 267.613 247.771 267.576 247.749Z" fill="white" fill-opacity="0.7"/>
<path d="M319.038 263.536C319.036 263.508 319.025 263.482 319.008 263.46C318.99 263.438 318.967 263.422 318.94 263.413C318.914 263.404 318.885 263.404 318.859 263.411C318.832 263.418 318.808 263.434 318.789 263.455C316.109 266.587 311.261 267.531 307.931 265.216C305.271 263.358 304.804 259.541 306.236 256.673C308.256 252.637 314.337 251.972 318.256 251.876C318.339 251.875 318.418 251.84 318.475 251.781C318.533 251.721 318.566 251.64 318.566 251.556C318.566 245.338 312.139 245.851 308.343 248.008C308.304 248.029 308.261 248.043 308.216 248.046C308.172 248.05 308.128 248.045 308.086 248.031C308.044 248.016 308.006 247.993 307.974 247.963C307.942 247.933 307.917 247.896 307.901 247.856L307.068 245.861C307.019 245.741 307.015 245.606 307.058 245.484C307.101 245.361 307.188 245.258 307.302 245.196C311.957 242.668 319.698 242.247 321.982 248.135C322.49 249.451 322.705 251.566 322.627 254.48C322.529 258.064 322.615 261.708 322.886 265.414C322.891 265.49 322.881 265.566 322.856 265.638C322.83 265.71 322.791 265.776 322.739 265.832C322.687 265.888 322.624 265.932 322.554 265.962C322.484 265.993 322.409 266.008 322.332 266.008H319.708C319.568 266.008 319.433 265.955 319.331 265.858C319.229 265.762 319.168 265.63 319.16 265.49L319.038 263.536ZM318.332 254.82C315.967 254.736 313.947 255.049 312.271 255.759C309.911 256.759 308.769 259.368 310.073 261.678C310.615 262.632 311.393 263.169 312.408 263.287C315.529 263.649 317.606 262.267 318.642 259.14C318.659 259.089 318.667 259.035 318.667 258.977V255.165C318.667 255.075 318.632 254.989 318.57 254.925C318.507 254.86 318.422 254.823 318.332 254.82Z" fill="white" fill-opacity="0.7"/>
<path d="M331.398 247.592C331.397 247.628 331.407 247.665 331.429 247.694C331.45 247.724 331.481 247.746 331.516 247.756C331.552 247.766 331.589 247.764 331.623 247.75C331.657 247.735 331.685 247.71 331.703 247.678C332.133 246.971 332.358 246.6 332.378 246.566C333.901 244.255 335.969 243.25 338.581 243.551C338.657 243.56 338.727 243.596 338.777 243.653C338.828 243.711 338.856 243.784 338.855 243.861V247.186C338.855 247.219 338.849 247.252 338.835 247.283C338.821 247.313 338.801 247.34 338.776 247.362C338.751 247.385 338.722 247.401 338.69 247.411C338.658 247.421 338.624 247.423 338.591 247.419C334.145 246.881 331.987 250.394 331.997 254.318C332.004 255.678 332.002 259.504 331.992 265.795C331.991 265.844 331.971 265.89 331.937 265.924C331.903 265.958 331.857 265.977 331.81 265.977H328.114C328.059 265.977 328.006 265.955 327.967 265.916C327.928 265.877 327.906 265.824 327.906 265.769L327.926 244.089C327.926 244.082 327.928 244.074 327.931 244.068C327.934 244.061 327.938 244.055 327.944 244.05C327.95 244.044 327.956 244.04 327.964 244.037C327.971 244.035 327.979 244.033 327.987 244.033H331.241C331.284 244.033 331.325 244.05 331.356 244.079C331.386 244.109 331.403 244.149 331.403 244.191L331.398 247.592Z" fill="white" fill-opacity="0.7"/>
<path d="M356.439 246.866C356.453 246.885 356.472 246.898 356.494 246.905C356.516 246.912 356.54 246.911 356.562 246.903C356.585 246.895 356.604 246.881 356.618 246.861C356.633 246.842 356.641 246.819 356.642 246.795V244.663C356.642 244.489 356.711 244.323 356.834 244.2C356.957 244.077 357.123 244.008 357.297 244.008H359.693C359.771 244.008 359.848 244.024 359.92 244.054C359.992 244.085 360.057 244.129 360.111 244.185C360.165 244.241 360.207 244.307 360.235 244.38C360.262 244.452 360.275 244.53 360.271 244.607C360.15 247.998 360.119 254.023 360.18 262.683C360.231 269.414 358.155 274.658 350.652 275.343C347.552 275.627 344.642 275.121 341.921 273.825C341.822 273.778 341.744 273.696 341.702 273.593C341.66 273.491 341.657 273.377 341.693 273.272L342.596 270.719C342.609 270.681 342.63 270.648 342.657 270.619C342.685 270.591 342.718 270.569 342.755 270.555C342.792 270.541 342.831 270.535 342.87 270.538C342.91 270.541 342.948 270.552 342.982 270.572C346.794 272.698 353.81 273.419 355.576 268.11C356.06 266.654 356.243 264.92 356.124 262.907C356.123 262.883 356.115 262.861 356.101 262.842C356.087 262.823 356.067 262.809 356.045 262.801C356.023 262.793 355.998 262.791 355.974 262.797C355.95 262.802 355.929 262.814 355.911 262.83C352.683 266.096 349.074 266.78 345.084 264.881C339.825 262.374 338.683 255.069 340.723 249.973C342.341 245.942 345.197 243.786 349.292 243.506C352.297 243.297 354.612 244.419 356.439 246.866ZM343.967 254.566C343.891 258.013 345.449 262.125 349.119 262.612C352.425 263.045 354.647 261.666 355.784 258.475C356.119 257.536 356.079 255.82 356.104 254.846C356.124 253.871 356.241 252.16 355.952 251.206C354.964 247.967 352.808 246.489 349.485 246.769C345.794 247.084 344.048 251.12 343.967 254.566Z" fill="white" fill-opacity="0.7"/>
<path d="M375.86 243.505C382.51 244.109 386.119 249.465 385.53 255.932C384.947 262.404 380.439 267.028 373.784 266.424C367.129 265.82 363.525 260.465 364.109 253.998C364.698 247.526 369.205 242.901 375.86 243.505ZM374.872 246.511C373.117 246.493 371.424 247.363 370.166 248.931C368.908 250.499 368.189 252.637 368.165 254.873C368.154 255.98 368.313 257.078 368.635 258.104C368.957 259.131 369.435 260.065 370.041 260.855C370.648 261.644 371.371 262.273 372.17 262.705C372.968 263.137 373.827 263.364 374.696 263.373C376.451 263.391 378.144 262.521 379.402 260.953C380.66 259.384 381.38 257.247 381.403 255.011C381.415 253.904 381.255 252.806 380.933 251.78C380.611 250.753 380.133 249.819 379.527 249.029C378.92 248.24 378.197 247.611 377.399 247.179C376.6 246.747 375.742 246.52 374.872 246.511Z" fill="white" fill-opacity="0.7"/>
<path d="M424.926 256.059C425.145 263.48 432.576 264.45 438.048 262.201C438.092 262.183 438.14 262.174 438.188 262.176C438.236 262.178 438.283 262.19 438.326 262.212C438.369 262.234 438.407 262.264 438.437 262.302C438.467 262.339 438.488 262.383 438.5 262.429L439.073 264.693C439.102 264.804 439.088 264.92 439.034 265.022C438.981 265.123 438.892 265.201 438.784 265.242C435.464 266.495 430.515 266.927 427.287 265.653C421.535 263.379 419.891 256.927 421.515 251.15C423.134 245.394 428.139 242.394 434.099 243.861C439.002 245.069 440.875 250.891 440.282 255.495C440.273 255.553 440.244 255.607 440.2 255.645C440.156 255.683 440.101 255.704 440.043 255.703H425.271C425.225 255.703 425.179 255.713 425.137 255.731C425.094 255.749 425.056 255.775 425.024 255.808C424.992 255.841 424.966 255.88 424.95 255.924C424.933 255.967 424.925 256.013 424.926 256.059ZM425.337 252.78H436.373C436.411 252.78 436.447 252.765 436.473 252.738C436.5 252.711 436.515 252.675 436.515 252.637V252.561C436.515 250.936 435.921 249.378 434.863 248.229C433.806 247.08 432.371 246.434 430.875 246.434H430.835C429.339 246.434 427.905 247.08 426.847 248.229C425.789 249.378 425.195 250.936 425.195 252.561V252.637C425.195 252.675 425.21 252.711 425.237 252.738C425.264 252.765 425.3 252.78 425.337 252.78Z" fill="white" fill-opacity="0.7"/>
<path d="M491.139 255.703C491.093 255.703 491.048 255.713 491.005 255.731C490.962 255.748 490.924 255.775 490.892 255.808C490.86 255.841 490.834 255.88 490.818 255.923C490.801 255.966 490.793 256.012 490.794 256.059C491.013 263.48 498.444 264.444 503.911 262.196C503.955 262.178 504.003 262.169 504.051 262.171C504.099 262.173 504.146 262.185 504.189 262.207C504.232 262.228 504.27 262.259 504.3 262.297C504.33 262.334 504.351 262.378 504.363 262.424L504.936 264.688C504.965 264.798 504.951 264.915 504.897 265.016C504.844 265.118 504.755 265.196 504.647 265.236C501.327 266.49 496.383 266.922 493.155 265.647C487.403 263.378 485.759 256.927 487.383 251.155C489.002 245.399 494.002 242.399 499.962 243.866C504.86 245.074 506.733 250.891 506.145 255.495C506.136 255.553 506.107 255.606 506.063 255.645C506.019 255.683 505.964 255.704 505.906 255.703H491.139ZM491.18 252.79L502.236 252.769C502.274 252.769 502.31 252.754 502.336 252.728C502.363 252.701 502.378 252.665 502.378 252.627V252.526C502.375 250.91 501.775 249.362 500.71 248.222C499.645 247.081 498.202 246.442 496.698 246.444C495.953 246.446 495.216 246.604 494.529 246.912C493.841 247.219 493.217 247.669 492.691 248.235C492.166 248.802 491.749 249.474 491.465 250.214C491.182 250.954 491.037 251.746 491.038 252.546V252.647C491.038 252.685 491.053 252.721 491.08 252.748C491.106 252.775 491.142 252.79 491.18 252.79Z" fill="white" fill-opacity="0.7"/>
<path d="M554.114 247.764C551.258 246.482 548.535 246.468 545.947 247.724C541.967 249.653 541.155 255.328 542.931 259.104C544.942 263.384 550.119 263.911 554.063 262.16C554.112 262.138 554.166 262.127 554.22 262.128C554.274 262.129 554.327 262.142 554.375 262.167C554.424 262.191 554.466 262.226 554.5 262.268C554.534 262.311 554.558 262.361 554.571 262.414L555.119 264.779C555.147 264.898 555.13 265.024 555.071 265.132C555.013 265.24 554.916 265.324 554.799 265.368C552.539 266.197 550.199 266.526 547.779 266.353C540.713 265.851 536.967 259.952 538.002 253.312C539.332 244.805 547.434 241.703 554.972 244.5C555.051 244.529 555.117 244.587 555.155 244.661C555.194 244.736 555.203 244.821 555.18 244.901L554.485 247.587C554.475 247.624 554.457 247.66 554.432 247.69C554.407 247.72 554.376 247.745 554.341 247.761C554.305 247.778 554.267 247.787 554.228 247.788C554.189 247.788 554.15 247.78 554.114 247.764Z" fill="white" fill-opacity="0.7"/>
<path d="M578.307 255.967C577.703 262.434 573.18 267.038 566.53 266.419C559.881 265.795 556.292 260.429 556.896 253.957C557.505 247.49 562.028 242.886 568.678 243.51C575.327 244.13 578.916 249.5 578.307 255.967ZM567.63 246.506C565.876 246.493 564.187 247.37 562.936 248.944C561.684 250.517 560.972 252.658 560.957 254.896C560.949 256.004 561.113 257.102 561.438 258.128C561.763 259.154 562.244 260.087 562.852 260.875C563.461 261.662 564.186 262.289 564.985 262.718C565.785 263.148 566.643 263.372 567.512 263.378C569.266 263.391 570.955 262.513 572.206 260.94C573.458 259.367 574.169 257.226 574.185 254.988C574.193 253.88 574.029 252.782 573.704 251.756C573.379 250.73 572.898 249.797 572.289 249.009C571.681 248.222 570.956 247.595 570.156 247.165C569.357 246.736 568.498 246.512 567.63 246.506Z" fill="white" fill-opacity="0.7"/>
<path d="M177.439 265.896C177.444 265.906 177.448 265.916 177.448 265.927C177.449 265.938 177.447 265.948 177.442 265.958C177.437 265.967 177.43 265.975 177.422 265.98C177.413 265.985 177.403 265.988 177.393 265.988L172.906 265.993C172.856 265.993 172.807 265.98 172.762 265.956C172.718 265.932 172.68 265.898 172.652 265.856L167.322 257.576C167.31 257.558 167.294 257.542 167.274 257.531C167.255 257.52 167.233 257.515 167.211 257.515C167.188 257.515 167.166 257.52 167.147 257.531C167.127 257.542 167.111 257.558 167.099 257.576L161.865 265.845C161.837 265.889 161.799 265.925 161.754 265.95C161.708 265.975 161.658 265.988 161.606 265.988L157.211 265.977C157.204 265.977 157.198 265.975 157.193 265.971C157.188 265.967 157.184 265.962 157.182 265.957C157.179 265.951 157.178 265.945 157.179 265.939C157.179 265.933 157.182 265.927 157.185 265.922L164.779 255.008C164.834 254.927 164.864 254.832 164.864 254.735C164.864 254.638 164.834 254.543 164.779 254.465L157.617 244.099C157.612 244.093 157.609 244.085 157.609 244.077C157.608 244.069 157.61 244.061 157.614 244.053C157.617 244.046 157.623 244.04 157.63 244.036C157.636 244.031 157.644 244.029 157.652 244.028L162.063 244.023C162.118 244.023 162.171 244.037 162.219 244.064C162.267 244.091 162.308 244.129 162.337 244.175L167.363 251.911C167.377 251.932 167.396 251.95 167.418 251.961C167.44 251.973 167.465 251.98 167.49 251.98C167.515 251.98 167.54 251.973 167.562 251.961C167.584 251.95 167.603 251.932 167.617 251.911L172.601 244.145C172.623 244.109 172.654 244.08 172.692 244.059C172.729 244.039 172.771 244.028 172.815 244.028L177.134 244.038C177.141 244.038 177.148 244.039 177.154 244.042C177.159 244.045 177.164 244.05 177.167 244.057C177.171 244.063 177.172 244.07 177.172 244.078C177.171 244.085 177.169 244.093 177.165 244.099L169.921 254.368C169.871 254.438 169.843 254.521 169.842 254.608C169.841 254.694 169.867 254.779 169.916 254.851L177.439 265.896Z" fill="white" fill-opacity="0.7"/>
<path d="M522.591 265.917L517.013 257.714C516.997 257.692 516.977 257.674 516.953 257.662C516.93 257.65 516.903 257.644 516.877 257.645C516.85 257.645 516.824 257.652 516.801 257.665C516.778 257.678 516.758 257.696 516.744 257.719L511.576 265.917C511.561 265.94 511.541 265.959 511.517 265.972C511.493 265.986 511.466 265.993 511.439 265.993H507.195C507.166 265.992 507.137 265.984 507.112 265.969C507.087 265.953 507.067 265.931 507.054 265.905C507.04 265.879 507.034 265.85 507.035 265.821C507.037 265.792 507.047 265.763 507.063 265.739L514.617 254.871C514.636 254.845 514.646 254.813 514.647 254.78C514.648 254.748 514.639 254.716 514.622 254.688L507.54 244.287C507.524 244.263 507.514 244.235 507.513 244.205C507.511 244.176 507.517 244.147 507.531 244.121C507.544 244.095 507.565 244.073 507.59 244.058C507.614 244.042 507.643 244.034 507.672 244.033H511.774C511.801 244.033 511.828 244.039 511.852 244.052C511.875 244.064 511.896 244.082 511.911 244.105L517.18 251.846C517.195 251.867 517.216 251.885 517.239 251.897C517.263 251.909 517.289 251.915 517.316 251.914C517.342 251.914 517.369 251.907 517.392 251.894C517.415 251.881 517.435 251.863 517.449 251.841L522.327 244.105C522.342 244.081 522.362 244.062 522.386 244.049C522.41 244.036 522.437 244.028 522.464 244.028H526.596C526.626 244.029 526.654 244.037 526.679 244.053C526.704 244.068 526.725 244.09 526.738 244.116C526.752 244.142 526.758 244.171 526.756 244.2C526.754 244.23 526.745 244.258 526.728 244.282L519.591 254.551C519.572 254.578 519.562 254.609 519.561 254.642C519.56 254.674 519.569 254.706 519.586 254.734L527.074 265.734C527.09 265.758 527.1 265.786 527.101 265.816C527.103 265.845 527.097 265.874 527.083 265.9C527.07 265.926 527.049 265.948 527.025 265.964C527 265.979 526.971 265.987 526.942 265.988H522.728C522.701 265.988 522.675 265.982 522.651 265.97C522.627 265.957 522.606 265.939 522.591 265.917Z" fill="white" fill-opacity="0.7"/>
<path d="M533.794 244.028H530.068C529.939 244.028 529.835 244.133 529.835 244.262V265.764C529.835 265.893 529.939 265.998 530.068 265.998H533.794C533.923 265.998 534.028 265.893 534.028 265.764V244.262C534.028 244.133 533.923 244.028 533.794 244.028Z" fill="white" fill-opacity="0.7"/>
</svg>
