<svg width="222" height="222" viewBox="0 0 222 222" fill="none" xmlns="http://www.w3.org/2000/svg">
<path d="M87.9155 159.094C94.9643 168.506 97.8796 177.502 98.53 179.727C103.616 172.906 109.256 167.867 115.035 164.166C107.619 160.979 98.4115 158.592 87.9155 159.094Z" fill="white" fill-opacity="0.6"/>
<path d="M45.49 197.433C40.9331 194.89 36.841 191.84 33.1697 188.492C33.139 188.525 33.1086 188.556 33.0779 188.588C33.0779 188.588 54.4432 211.089 82.2169 217.108C83.5164 211.599 85.037 206.562 86.7422 201.96C67.4715 209.473 45.49 197.433 45.49 197.433Z" fill="white" fill-opacity="0.3"/>
<path d="M177.468 176.936C174.654 197.717 152.842 210.985 152.842 210.985C148.521 213.695 143.902 215.727 139.175 217.23C139.185 217.263 139.193 217.294 139.203 217.327C139.203 217.327 169.317 210.3 188.62 188.787C184.367 184.785 180.671 180.83 177.468 176.936Z" fill="white" fill-opacity="0.3"/>
<path d="M141.109 155.035C154.032 153.532 163.925 156.143 164.535 156.309C161.087 148.42 159.494 140.944 159.154 134.026C152.66 138.856 145.95 145.657 141.109 155.035Z" fill="white" fill-opacity="0.6"/>
<path d="M216.749 81.5288C216.893 82.0699 216.963 82.366 216.963 82.366C211.451 84.0264 206.249 85.2421 201.339 86.0703C218.001 98.8782 218.582 124.493 218.582 124.493C218.657 129.615 218.074 134.588 217.049 139.361C217.069 139.366 217.089 139.371 217.109 139.375C217.109 139.375 226.099 109.402 216.749 81.5288Z" fill="white" fill-opacity="0.3"/>
<path d="M164.245 106.758C169.387 94.8159 176.585 87.5318 177.087 87.033C168.487 86.1072 161.181 83.7684 154.988 80.6138C155.945 88.6682 158.506 97.8835 164.245 106.758Z" fill="white" fill-opacity="0.6"/>
<path d="M80.541 66.9978C69.1068 68.4091 59.9583 66.5743 57.3572 65.9593C60.7763 73.7741 62.3724 81.1816 62.7355 88.046C69.1812 83.1746 75.7901 76.3586 80.541 66.9978Z" fill="white" fill-opacity="0.6"/>
<path d="M33.2668 33.4903C37.2433 37.2317 40.7334 40.9314 43.7889 44.5784C46.9214 24.1272 68.3339 11.1038 68.3339 11.1038C71.9903 8.92025 75.7835 7.1744 79.628 5.78542C71.7146 8.11207 47.7287 16.3871 31.7124 35.0496C32.6871 34.0401 33.2668 33.4903 33.2668 33.4903Z" fill="white" fill-opacity="0.3"/>
<path d="M45.3164 134.741C53.747 135.726 60.9079 138.083 66.9965 141.219C66.0311 133.207 63.4737 124.056 57.7835 115.238C53.2875 125.819 47.1412 132.805 45.3164 134.741Z" fill="white" fill-opacity="0.6"/>
<path d="M3.31971 97.8001C3.24298 92.5509 3.85337 87.4573 4.92707 82.5775C4.91462 82.5746 4.90303 82.5714 4.89087 82.5685C4.89087 82.5685 -3.86205 111.753 4.88856 139.306C10.1783 137.717 15.1828 136.536 19.9169 135.716C3.88436 122.752 3.31971 97.8001 3.31971 97.8001Z" fill="white" fill-opacity="0.3"/>
<path d="M133.877 62.6541C126.447 52.7507 123.592 43.2955 123.143 41.6873C118.04 48.6982 112.357 53.8749 106.524 57.6757C114.005 60.8671 123.295 63.2314 133.877 62.6541Z" fill="white" fill-opacity="0.6"/>
<path d="M134.498 19.9462C153.89 12.0121 176.265 24.2655 176.265 24.2655C179.987 26.3428 183.397 28.7584 186.523 31.3964C180.734 25.848 161.404 8.90248 136.958 4.34999C138.264 4.67703 138.981 4.89197 138.981 4.89197C137.694 10.365 136.186 15.368 134.498 19.9462Z" fill="white" fill-opacity="0.3"/>
<path d="M44.4918 177.786C24.0878 174.616 11.0986 153.242 11.0986 153.242C8.41808 148.75 6.39548 144.052 4.88831 139.306C4.85559 139.316 4.82403 139.324 4.79102 139.334C4.79102 139.334 11.8025 169.008 33.1699 188.492C36.9915 184.435 40.7694 180.883 44.4918 177.786Z" fill="white" fill-opacity="0.3"/>
<path opacity="0.7" d="M86.743 201.96C90.0648 192.998 94.0866 185.686 98.5299 179.727C97.8796 177.502 94.9642 168.506 87.9154 159.094C81.0783 159.421 73.697 160.971 65.9078 164.329C59.0518 167.285 51.8817 171.638 44.4918 177.786C40.7694 180.883 36.9915 184.435 33.1702 188.492C36.8418 191.84 40.9336 194.89 45.4905 197.433C45.4905 197.433 67.472 209.473 86.743 201.96Z" fill="white"/>
<path opacity="0.7" d="M44.4919 177.786C51.8815 171.638 59.0516 167.285 65.9079 164.329C66.4908 161.898 68.3834 152.735 66.9961 141.22C60.9074 138.083 53.7463 135.726 45.3159 134.742C37.8675 133.872 29.4404 134.066 19.917 135.716C15.1829 136.537 10.1784 137.717 4.88867 139.306C6.39613 144.052 8.41843 148.75 11.0989 153.242C11.0986 153.242 24.0878 174.615 44.4919 177.786Z" fill="white"/>
<path d="M97.3639 218.547C92.1709 218.718 87.0964 218.165 82.2178 217.108C82.2109 217.138 82.2028 217.166 82.1958 217.196C82.1958 217.196 112.438 225.732 139.175 217.23C137.526 211.736 136.316 206.549 135.493 201.653C122.601 217.973 97.3639 218.547 97.3639 218.547Z" fill="white" fill-opacity="0.3"/>
<path opacity="0.7" d="M97.3659 218.547C97.3659 218.547 122.603 217.973 135.495 201.653C133.934 192.369 133.762 184.133 134.608 176.836C133.274 175.539 126.177 168.953 115.037 164.166C109.258 167.867 103.618 172.906 98.5317 179.727C94.0884 185.686 90.0666 192.998 86.7448 201.96C85.0393 206.562 83.5187 211.599 82.2195 217.108C87.098 218.165 92.1729 218.718 97.3659 218.547Z" fill="white"/>
<path opacity="0.7" d="M177.467 176.937C171.62 169.827 167.425 162.923 164.534 156.309C163.924 156.143 154.03 153.532 141.108 155.035C137.953 161.15 135.589 168.356 134.606 176.836C133.759 184.133 133.931 192.369 135.492 201.653C136.316 206.549 137.525 211.736 139.175 217.23C143.902 215.727 148.52 213.695 152.841 210.986C152.841 210.985 174.653 197.717 177.467 176.937Z" fill="white"/>
<path d="M197.28 176.612C194.834 181.109 191.88 185.153 188.62 188.787C188.625 188.792 188.63 188.797 188.636 188.802C188.636 188.802 210.949 167.752 217.049 139.361C211.397 138.028 206.245 136.46 201.546 134.7C209.584 154.129 197.28 176.612 197.28 176.612Z" fill="white" fill-opacity="0.3"/>
<path opacity="0.7" d="M201.546 134.7C193.023 131.508 186 127.681 180.225 123.459C180.186 123.441 180.147 123.423 180.109 123.405C180.109 123.405 169.933 126.007 159.153 134.026C159.493 140.944 161.086 148.42 164.534 156.309C167.425 162.923 171.62 169.827 177.468 176.936C180.67 180.83 184.366 184.785 188.619 188.787C191.88 185.153 194.834 181.109 197.28 176.612C197.28 176.612 209.584 154.129 201.546 134.7Z" fill="white"/>
<path opacity="0.7" d="M201.339 86.0704C192.294 87.5961 184.244 87.8032 177.088 87.0327C176.586 87.5318 169.388 94.8159 164.246 106.758C168.035 112.618 173.208 118.329 180.225 123.458C186 127.68 193.024 131.507 201.546 134.7C206.244 136.46 211.396 138.027 217.049 139.361C218.075 134.588 218.657 129.615 218.582 124.493C218.582 124.493 218.001 98.8785 201.339 86.0704Z" fill="white"/>
<path d="M188.317 33.1806C184.433 37.3119 180.594 40.9204 176.812 44.0599C197.615 46.8457 210.9 68.7029 210.9 68.7029C213.372 72.8444 215.284 77.1611 216.749 81.5293C215.39 76.4221 207.302 48.9348 186.522 31.398C187.685 32.5126 188.317 33.1806 188.317 33.1806Z" fill="white" fill-opacity="0.3"/>
<path opacity="0.7" d="M176.812 44.0598C169.715 49.9514 162.822 54.1881 156.214 57.1231C155.88 58.4014 153.503 68.1074 154.989 80.6137C161.182 83.7682 168.488 86.107 177.088 87.0328C184.245 87.8031 192.295 87.5962 201.339 86.0705C206.249 85.2424 211.451 84.0266 216.964 82.3662C216.964 82.3662 216.893 82.0702 216.75 81.5291C215.284 77.1611 213.373 72.8441 210.901 68.7027C210.901 68.7027 197.615 46.8453 176.812 44.0598Z" fill="white"/>
<path opacity="0.7" d="M134.497 19.9475C131.287 28.6547 127.419 35.8137 123.144 41.6874C123.593 43.2956 126.448 52.7508 133.878 62.6541C140.817 62.2755 148.309 60.6351 156.215 57.1231C162.822 54.1882 169.716 49.9514 176.813 44.0598C180.594 40.9203 184.434 37.3119 188.318 33.1806C188.318 33.1806 187.686 32.5129 186.522 31.3979C183.396 28.7596 179.986 26.3443 176.265 24.2671C176.265 24.2668 153.889 12.0131 134.497 19.9475Z" fill="white"/>
<path d="M24.1901 45.779C26.3699 41.871 28.9201 38.3029 31.7121 35.0498C26.5845 40.3616 10.144 58.8719 4.92725 82.5778C10.2569 83.8341 15.141 85.299 19.6205 86.9365C12.1996 67.6849 24.1901 45.779 24.1901 45.779Z" fill="white" fill-opacity="0.3"/>
<path opacity="0.7" d="M19.6214 86.9362C28.7076 90.2579 36.1186 94.2933 42.1491 98.7615C44.7705 97.9707 53.5807 94.9653 62.7361 88.0456C62.373 81.1813 60.7769 73.7735 57.3577 65.959C54.3616 59.1114 49.9684 51.9531 43.7894 44.578C40.734 40.931 37.2439 37.2313 33.2673 33.4899C33.2673 33.4899 32.6876 34.0397 31.713 35.0492C28.921 38.3025 26.3711 41.8704 24.191 45.7784C24.1913 45.779 12.2008 67.6849 19.6214 86.9362Z" fill="white"/>
<path opacity="0.7" d="M19.9171 135.716C29.4405 134.065 37.8676 133.872 45.3161 134.742C47.1409 132.805 53.2871 125.819 57.7832 115.238C54.0582 109.465 48.9949 103.835 42.1482 98.7618C36.1178 94.2933 28.7068 90.2579 19.6206 86.9365C15.141 85.299 10.257 83.8341 4.9273 82.5778C3.85331 87.4576 3.24321 92.5512 3.31995 97.8003C3.31995 97.8 3.88459 122.752 19.9171 135.716Z" fill="white"/>
<path d="M85.877 20.1502C98.7608 3.79733 124.033 3.22233 124.033 3.22233C128.462 3.15744 132.784 3.57428 136.958 4.35147C129.637 2.5164 103.632 -2.88628 79.6292 5.78536C81.3098 5.29118 82.2688 5.06407 82.2688 5.06407C83.8675 10.3758 85.0521 15.3981 85.877 20.1502Z" fill="white" fill-opacity="0.3"/>
<path opacity="0.7" d="M43.7878 44.5782C49.9668 51.953 54.36 59.1114 57.3561 65.9592C59.9573 66.5742 69.1057 68.409 80.54 66.9977C83.6652 60.8399 85.9901 53.5905 86.9202 45.06C87.7191 37.7318 87.4924 29.464 85.8752 20.1502C85.0502 15.3981 83.8656 10.3758 82.2669 5.06435C82.2669 5.06435 81.3079 5.29145 79.6273 5.78563C75.783 7.17461 71.9895 8.92046 68.3332 11.104C68.3332 11.1037 46.9206 24.1274 43.7878 44.5782Z" fill="white"/>
<path opacity="0.7" d="M85.8762 20.1494C87.4934 29.4632 87.7202 37.7308 86.9213 45.0592C88.5538 46.624 95.6194 53.0229 106.525 57.6753C112.358 53.8748 118.041 48.6978 123.144 41.6868C127.419 35.8129 131.287 28.6539 134.497 19.9469C136.185 15.3687 137.693 10.366 138.98 4.89296C138.98 4.89296 138.263 4.67831 136.957 4.35098C132.784 3.57379 128.461 3.15695 124.032 3.22183C124.032 3.22154 98.76 3.79655 85.8762 20.1494Z" fill="white"/>
<path d="M218.583 124.492C218.583 124.492 218.001 98.8776 201.339 86.0698C206.249 85.2416 211.452 84.0258 216.964 82.3654C216.964 82.3654 216.894 82.0694 216.75 81.5283C215.284 77.1603 213.373 72.8433 210.901 68.7019C210.901 68.7019 197.616 46.8444 176.813 44.0589C180.594 40.9195 184.434 37.311 188.317 33.1797C188.317 33.1797 187.685 32.512 186.522 31.3971C183.396 28.7587 179.986 26.3435 176.265 24.2662C176.265 24.2662 153.889 12.0125 134.497 19.9469C136.185 15.3687 137.693 10.366 138.98 4.89295C138.98 4.89295 138.263 4.67831 136.957 4.35098C132.784 3.57379 128.461 3.15695 124.032 3.22183C124.032 3.22183 98.7598 3.79684 85.876 20.1497C85.051 15.3976 83.8664 10.3753 82.2678 5.06386C82.2678 5.06386 81.3087 5.29096 79.6281 5.78514C75.7839 7.17412 71.9903 8.91997 68.334 11.1035C68.334 11.1035 46.9214 24.1272 43.7889 44.578C40.7335 40.931 37.2434 37.2314 33.2668 33.4899C33.2668 33.4899 32.6871 34.0397 31.7124 35.0493C28.9205 38.3026 26.3706 41.8704 24.1905 45.7784C24.1905 45.7784 12.2003 67.6843 19.6206 86.9356C15.1411 85.2981 10.257 83.8332 4.92732 82.5769C3.85333 87.4567 3.24321 92.5503 3.31995 97.7994C3.31995 97.7994 3.8846 122.751 19.9174 135.715C15.1833 136.536 10.1788 137.716 4.88909 139.305C6.39655 144.051 8.41886 148.749 11.0993 153.241C11.0993 153.241 24.0885 174.614 44.4926 177.785C40.7703 180.882 36.9923 184.434 33.171 188.491C36.8426 191.839 40.9344 194.889 45.4913 197.432C45.4913 197.432 67.4726 209.472 86.7435 201.96C85.038 206.561 83.5175 211.598 82.2183 217.107C87.0968 218.165 92.1714 218.717 97.3644 218.546C97.3644 218.546 122.602 217.972 135.493 201.653C136.317 206.548 137.526 211.735 139.176 217.229C143.903 215.726 148.521 213.695 152.842 210.985C152.842 210.985 174.654 197.717 177.469 176.936C180.671 180.83 184.367 184.784 188.62 188.787C191.881 185.153 194.835 181.108 197.281 176.612C197.281 176.612 209.585 154.129 201.547 134.7C206.245 136.46 211.397 138.027 217.05 139.361C218.075 134.588 218.657 129.615 218.583 124.492ZM180.109 123.404C180.109 123.404 169.934 126.006 159.154 134.024C159.494 140.943 161.086 148.419 164.535 156.308C163.925 156.142 154.032 153.531 141.109 155.034C137.954 161.148 135.59 168.355 134.607 176.835C133.272 175.538 126.175 168.952 115.036 164.164C109.257 167.866 103.616 172.905 98.5302 179.726C97.8798 177.5 94.9645 168.504 87.9157 159.092C81.0785 159.419 73.6973 160.969 65.9081 164.328C66.491 161.897 68.3835 152.734 66.9962 141.218C60.9076 138.082 53.7464 135.725 45.3161 134.74C47.1409 132.803 53.2872 125.818 57.7832 115.237C54.0583 109.464 48.995 103.834 42.1483 98.7606C44.7697 97.9698 53.5799 94.9644 62.7353 88.0447C62.3722 81.1804 60.7761 73.7726 57.357 65.9581C59.9581 66.5731 69.1066 68.4079 80.5408 66.9966C83.6661 60.8388 85.991 53.5894 86.921 45.0589C88.5536 46.6237 95.6192 53.0225 106.524 57.675C112.358 53.8745 118.04 48.6974 123.143 41.6865C123.593 43.2948 126.448 52.75 133.878 62.6533C140.816 62.2747 148.309 60.6342 156.215 57.1223C155.88 58.4006 153.503 68.1066 154.989 80.6129C161.182 83.7674 168.488 86.1063 177.088 87.0321C176.586 87.5312 169.388 94.8152 164.246 106.757C168.036 112.617 173.209 118.329 180.225 123.458C180.187 123.44 180.148 123.422 180.109 123.404Z" fill="white" fill-opacity="0.3"/>
<path d="M66.9956 141.22C68.3829 152.735 66.4906 161.898 65.9075 164.329C73.6967 160.97 81.0779 159.421 87.9151 159.093C83.0866 152.647 76.3042 146.015 66.9956 141.22Z" fill="white" fill-opacity="0.6"/>
<path d="M134.606 176.836C135.59 168.357 137.953 161.15 141.108 155.035C133.086 155.968 123.898 158.489 115.035 164.166C126.174 168.953 133.272 175.539 134.606 176.836Z" fill="white" fill-opacity="0.6"/>
<path d="M159.153 134.025C169.933 126.007 180.109 123.405 180.109 123.405C180.147 123.423 180.186 123.441 180.225 123.459C173.209 118.329 168.035 112.618 164.246 106.758C161.039 114.206 158.634 123.465 159.153 134.025Z" fill="white" fill-opacity="0.6"/>
<path d="M154.99 80.6137C153.504 68.1077 155.881 58.4014 156.216 57.1231C148.31 60.6348 140.817 62.2752 133.879 62.6541C138.746 69.1424 145.58 75.8208 154.99 80.6137Z" fill="white" fill-opacity="0.6"/>
<path d="M62.7345 88.046C53.5788 94.9657 44.7689 97.9707 42.1475 98.7618C48.9942 103.835 54.0574 109.465 57.7824 115.238C60.9473 107.789 63.2904 98.5573 62.7345 88.046Z" fill="white" fill-opacity="0.6"/>
<path d="M86.9212 45.0596C85.9912 53.5905 83.6663 60.8399 80.541 66.9975C88.5668 66.0068 97.7173 63.4139 106.525 57.6755C95.6194 53.0233 88.5541 46.6244 86.9212 45.0596Z" fill="white" fill-opacity="0.6"/>
</svg>
