<svg width="120" height="120" viewBox="0 0 120 120" fill="none" xmlns="http://www.w3.org/2000/svg">
<path d="M48.6675 83.6097C52.1278 88.2301 53.559 92.6464 53.8783 93.7388C56.3751 90.3904 59.1438 87.9166 61.9808 86.0997C58.3401 84.535 53.8201 83.3632 48.6675 83.6097Z" fill="#A3D783"/>
<path d="M27.8409 102.431C25.6039 101.182 23.595 99.6851 21.7927 98.0416C21.7777 98.0575 21.7627 98.0729 21.7477 98.0888C21.7477 98.0888 32.2361 109.134 45.8705 112.089C46.5084 109.385 47.2549 106.912 48.092 104.653C38.6318 108.341 27.8409 102.431 27.8409 102.431Z" fill="#A3D783"/>
<path d="M92.6297 92.3688C91.2481 102.57 80.5404 109.084 80.5404 109.084C78.4191 110.414 76.152 111.411 73.8314 112.149C73.8363 112.165 73.8401 112.181 73.8449 112.197C73.8449 112.197 88.6283 108.747 98.104 98.1865C96.0163 96.2217 94.2021 94.2803 92.6297 92.3688Z" fill="#A3D783"/>
<path d="M74.7808 81.6173C81.1244 80.8795 85.9812 82.1611 86.2806 82.2427C84.5877 78.3697 83.8058 74.7 83.6389 71.3035C80.4509 73.6748 77.1571 77.0133 74.7808 81.6173Z" fill="#A3D783"/>
<path d="M111.913 45.5323C111.984 45.798 112.018 45.9433 112.018 45.9433C109.312 46.7584 106.759 47.3553 104.348 47.7618C112.528 54.0493 112.813 66.6237 112.813 66.6237C112.85 69.1384 112.564 71.5798 112.061 73.9227C112.07 73.925 112.08 73.9275 112.09 73.9298C112.09 73.9298 116.503 59.2154 111.913 45.5323Z" fill="#A3D783"/>
<path d="M86.139 57.9177C88.663 52.0551 92.1968 48.4793 92.4432 48.2344C88.2213 47.7799 84.6346 46.6317 81.5944 45.0832C82.0642 49.0371 83.3216 53.561 86.139 57.9177Z" fill="#A3D783"/>
<path d="M45.0472 38.3989C39.434 39.0917 34.9429 38.191 33.666 37.8891C35.3445 41.7255 36.128 45.3619 36.3063 48.7317C39.4705 46.3402 42.7149 42.9942 45.0472 38.3989Z" fill="#A3D783"/>
<path d="M21.8398 21.9498C23.7919 23.7865 25.5052 25.6027 27.0052 27.393C28.5429 17.3533 39.0546 10.96 39.0546 10.96C40.8495 9.8881 42.7116 9.03105 44.5989 8.34918C40.7142 9.49136 28.9393 13.5537 21.0767 22.7152C21.5552 22.2197 21.8398 21.9498 21.8398 21.9498Z" fill="#A3D783"/>
<path d="M27.7551 71.6549C31.8937 72.1382 35.4091 73.2952 38.398 74.8349C37.9241 70.9015 36.6686 66.4093 33.8753 62.0802C31.6681 67.2749 28.6509 70.7041 27.7551 71.6549Z" fill="#A3D783"/>
<path d="M7.13877 53.52C7.1011 50.9432 7.40074 48.4427 7.92783 46.0471C7.92172 46.0457 7.91603 46.0441 7.91006 46.0427C7.91006 46.0427 3.61318 60.3698 7.90893 73.8957C10.5057 73.1154 12.9625 72.5361 15.2865 72.1332C7.41596 65.7689 7.13877 53.52 7.13877 53.52Z" fill="#A3D783"/>
<path d="M71.2309 36.2665C67.5835 31.4049 66.182 26.7633 65.9613 25.9738C63.4562 29.4155 60.6666 31.9568 57.8029 33.8226C61.4755 35.3893 66.0362 36.55 71.2309 36.2665Z" fill="#A3D783"/>
<path d="M71.5347 15.3015C81.0544 11.4066 92.0387 17.4219 92.0387 17.4219C93.8655 18.4416 95.5395 19.6274 97.0742 20.9225C94.2322 18.1987 84.7431 9.88002 72.7424 7.64516C73.3832 7.8057 73.7355 7.91122 73.7355 7.91122C73.1035 10.598 72.3635 13.054 71.5347 15.3015Z" fill="#A3D783"/>
<path d="M27.3506 92.786C17.3341 91.2295 10.9576 80.7368 10.9576 80.7368C9.6417 78.5318 8.64879 76.2257 7.90891 73.8958C7.89284 73.9006 7.87735 73.9046 7.86115 73.9095C7.86115 73.9095 11.3031 88.4769 21.7926 98.0417C23.6687 96.0499 25.5233 94.3063 27.3506 92.786Z" fill="#99DAEA"/>
<path opacity="0.7" d="M48.0922 104.653C49.7229 100.254 51.6972 96.6639 53.8785 93.7388C53.5592 92.6464 52.1281 88.2301 48.6677 83.6097C45.3113 83.7701 41.6878 84.531 37.864 86.1797C34.4983 87.6309 30.9784 89.7679 27.3507 92.786C25.5233 94.3063 23.6687 96.0499 21.7928 98.0417C23.5952 99.6853 25.6039 101.182 27.8409 102.431C27.8409 102.431 38.6319 108.341 48.0922 104.653Z" fill="#7CC24D"/>
<path opacity="0.7" d="M27.3506 92.786C30.9783 89.7679 34.4982 87.6309 37.864 86.1797C38.1501 84.9865 39.0792 80.4883 38.3982 74.8352C35.4092 73.2954 31.8937 72.1383 27.7552 71.6551C24.0987 71.2281 19.9617 71.3231 15.2866 72.1333C12.9626 72.5362 10.5058 73.1157 7.90906 73.8958C8.64908 76.2256 9.64185 78.5319 10.9577 80.7367C10.9576 80.7367 17.3341 91.2293 27.3506 92.786Z" fill="#7CC24D"/>
<path d="M53.306 112.796C50.7567 112.88 48.2656 112.608 45.8707 112.089C45.8673 112.104 45.8633 112.118 45.8599 112.132C45.8599 112.132 60.7062 116.323 73.8316 112.149C73.0219 109.452 72.428 106.906 72.0239 104.503C65.6952 112.514 53.306 112.796 53.306 112.796Z" fill="#99DAEA"/>
<path opacity="0.7" d="M53.306 112.796C53.306 112.796 65.6951 112.514 72.0239 104.503C71.2576 99.9448 71.1731 95.9019 71.5886 92.3195C70.9336 91.6829 67.4494 88.4496 61.9809 86.0996C59.1441 87.9165 56.3752 90.3904 53.8783 93.7387C51.697 96.6639 49.7227 100.254 48.092 104.653C47.2547 106.912 46.5083 109.385 45.8705 112.089C48.2654 112.608 50.7567 112.88 53.306 112.796Z" fill="#7CC24D"/>
<path opacity="0.7" d="M92.6298 92.3689C89.7592 88.8789 87.6998 85.4895 86.2806 82.2427C85.9812 82.1613 81.1244 80.8796 74.7807 81.6173C73.2316 84.619 72.0715 88.1567 71.5886 92.3195C71.1731 95.9019 71.2574 99.9447 72.0239 104.503C72.428 106.906 73.0218 109.452 73.8316 112.149C76.152 111.412 78.4192 110.414 80.5406 109.084C80.5406 109.084 91.2481 102.57 92.6298 92.3689Z" fill="#7CC24D"/>
<path d="M102.356 92.2095C101.155 94.4171 99.7048 96.4025 98.1042 98.1865C98.1069 98.189 98.1094 98.1914 98.1121 98.194C98.1121 98.194 109.066 87.8601 112.061 73.9227C109.286 73.2681 106.756 72.4985 104.45 71.6345C108.396 81.1725 102.356 92.2095 102.356 92.2095Z" fill="#99DAEA"/>
<path opacity="0.7" d="M104.45 71.6347C100.266 70.0675 96.8182 68.1888 93.9832 66.1162C93.9643 66.1074 93.9451 66.0985 93.9262 66.0898C93.9262 66.0898 88.9309 67.3672 83.6389 71.3035C83.8057 74.7 84.5877 78.3698 86.2806 82.2427C87.6998 85.4897 89.7591 88.8789 92.6298 92.3688C94.202 94.2802 96.0164 96.2217 98.1042 98.1865C99.7048 96.4026 101.155 94.417 102.356 92.2096C102.356 92.2096 108.396 81.1725 104.45 71.6347Z" fill="#7CC24D"/>
<path opacity="0.7" d="M104.348 47.7618C99.9084 48.5108 95.9564 48.6125 92.4433 48.2342C92.1969 48.4792 88.6632 52.0551 86.1391 57.9175C87.9994 60.7941 90.5389 63.5979 93.9833 66.1159C96.8184 68.1885 100.266 70.0672 104.45 71.6344C106.757 72.4984 109.286 73.268 112.061 73.9226C112.564 71.5798 112.85 69.1384 112.813 66.6236C112.813 66.6239 112.528 54.0494 104.348 47.7618Z" fill="#7CC24D"/>
<path d="M97.9557 21.7978C96.049 23.8259 94.1643 25.5973 92.3078 27.1385C102.52 28.506 109.042 39.236 109.042 39.236C110.255 41.269 111.194 43.3882 111.913 45.5326C111.246 43.0254 107.276 29.5316 97.0743 20.9226C97.6455 21.4698 97.9557 21.7978 97.9557 21.7978Z" fill="#99DAEA"/>
<path opacity="0.7" d="M92.3079 27.1384C88.824 30.0307 85.4397 32.1105 82.1962 33.5513C82.0318 34.1788 80.8651 38.9436 81.5944 45.0831C84.6347 46.6316 88.2213 47.7798 92.4433 48.2343C95.9565 48.6124 99.9084 48.5109 104.348 47.7619C106.759 47.3553 109.313 46.7585 112.019 45.9434C112.019 45.9434 111.984 45.7981 111.913 45.5324C111.194 43.3882 110.256 41.2689 109.042 39.2358C109.042 39.2358 102.52 28.5058 92.3079 27.1384Z" fill="#7CC24D"/>
<path opacity="0.7" d="M71.5348 15.3015C69.9588 19.576 68.0599 23.0904 65.9611 25.9738C66.1819 26.7633 67.5835 31.4049 71.2307 36.2666C74.637 36.0807 78.315 35.2754 82.1961 33.5513C85.4396 32.1106 88.8239 30.0307 92.3078 27.1384C94.1643 25.5972 96.049 23.8258 97.9557 21.7977C97.9557 21.7977 97.6454 21.4699 97.0744 20.9226C95.5397 19.6274 93.8655 18.4417 92.0389 17.422C92.0389 17.4219 81.0545 11.4064 71.5348 15.3015Z" fill="#7CC24D"/>
<path d="M17.3843 27.9824C18.4544 26.064 19.7063 24.3123 21.0769 22.7154C18.5597 25.3229 10.4889 34.4098 7.92798 46.0473C10.5444 46.664 12.942 47.3831 15.141 48.187C11.498 38.7362 17.3843 27.9824 17.3843 27.9824Z" fill="#99DAEA"/>
<path opacity="0.7" d="M15.1409 48.1869C19.6013 49.8175 23.2395 51.7985 26.1999 53.992C27.4867 53.6038 31.8118 52.1284 36.3062 48.7315C36.128 45.3617 35.3444 41.7252 33.666 37.889C32.1951 34.5274 30.0385 31.0133 27.0052 27.3928C25.5052 25.6025 23.7919 23.7863 21.8398 21.9496C21.8398 21.9496 21.5552 22.2195 21.0767 22.7151C19.7061 24.3122 18.4543 26.0637 17.3841 27.9821C17.3843 27.9824 11.498 38.7362 15.1409 48.1869Z" fill="#7CC24D"/>
<path opacity="0.7" d="M15.2864 72.1332C19.9616 71.3228 24.0985 71.2279 27.755 71.655C28.6508 70.7041 31.6681 67.2749 33.8752 62.0803C32.0466 59.2464 29.561 56.4825 26.1999 53.9921C23.2395 51.7985 19.6014 49.8175 15.1409 48.187C12.9418 47.3831 10.5442 46.664 7.9278 46.0473C7.40057 48.4428 7.10107 50.9433 7.13873 53.5202C7.13873 53.52 7.41592 65.7689 15.2864 72.1332Z" fill="#7CC24D"/>
<path d="M47.6663 15.401C53.991 7.37324 66.3975 7.09096 66.3975 7.09096C68.5718 7.05911 70.6935 7.26374 72.7426 7.64527C69.1482 6.74441 56.3825 4.09219 44.5991 8.34917C45.4242 8.10658 45.8949 7.99509 45.8949 7.99509C46.6797 10.6027 47.2613 13.0682 47.6663 15.401Z" fill="#99DAEA"/>
<path opacity="0.7" d="M27.0052 27.393C30.0385 31.0133 32.1952 34.5274 33.666 37.8891C34.9429 38.191 39.434 39.0917 45.0471 38.3989C46.5814 35.3759 47.7227 31.8172 48.1792 27.6294C48.5714 24.032 48.4601 19.9733 47.6662 15.401C47.2612 13.0682 46.6797 10.6027 45.8949 7.99524C45.8949 7.99524 45.4241 8.10672 44.5991 8.34932C42.7119 9.03118 40.8496 9.88824 39.0547 10.9602C39.0547 10.96 28.5431 17.3535 27.0052 27.393Z" fill="#7CC24D"/>
<path opacity="0.7" d="M47.6662 15.4011C48.4601 19.9733 48.5714 24.0319 48.1792 27.6295C48.9807 28.3977 52.4492 31.5389 57.8027 33.8229C60.6664 31.9572 63.456 29.4157 65.961 25.974C68.0597 23.0904 69.9587 19.576 71.5347 15.3017C72.3633 13.0541 73.1035 10.5983 73.7355 7.91153C73.7355 7.91153 73.3832 7.80615 72.7424 7.64547C70.6935 7.26394 68.5716 7.0593 66.3973 7.09116C66.3974 7.09102 53.991 7.37329 47.6662 15.4011Z" fill="#7CC24D"/>
<path d="M112.813 66.6239C112.813 66.6239 112.528 54.0494 104.348 47.762C106.759 47.3554 109.313 46.7586 112.019 45.9435C112.019 45.9435 111.984 45.7981 111.914 45.5325C111.194 43.3882 110.256 41.269 109.042 39.2359C109.042 39.2359 102.521 28.5059 92.308 27.1385C94.1645 25.5973 96.0493 23.8258 97.9559 21.7978C97.9559 21.7978 97.6456 21.47 97.0746 20.9226C95.5399 19.6275 93.8657 18.4418 92.0391 17.422C92.0391 17.422 81.0548 11.4066 71.5351 15.3017C72.3637 13.0541 73.1038 10.5983 73.7358 7.91153C73.7358 7.91153 73.3836 7.80615 72.7428 7.64546C70.6939 7.26394 68.572 7.0593 66.3977 7.09116C66.3977 7.09116 53.9912 7.37343 47.6664 15.4012C47.2615 13.0684 46.6799 10.6029 45.8951 7.99543C45.8951 7.99543 45.4243 8.10691 44.5993 8.34951C42.7121 9.03137 40.8498 9.88843 39.0549 10.9604C39.0549 10.9604 28.5433 17.3538 27.0055 27.3933C25.5056 25.603 23.7922 23.7867 21.8401 21.95C21.8401 21.95 21.5555 22.2199 21.077 22.7155C19.7064 24.3126 18.4547 26.0641 17.3844 27.9826C17.3844 27.9826 11.4983 38.7364 15.1411 48.187C12.942 47.3831 10.5444 46.664 7.92799 46.0473C7.40076 48.4428 7.10125 50.9433 7.13892 53.5202C7.13892 53.5202 7.41611 65.7691 15.2868 72.1334C12.9628 72.5362 10.506 73.1157 7.90922 73.8958C8.64925 76.2257 9.64202 78.5319 10.9579 80.7367C10.9579 80.7367 17.3344 91.2293 27.3509 92.786C25.5236 94.3063 23.669 96.0498 21.7931 98.0417C23.5955 99.6852 25.6042 101.182 27.8412 102.431C27.8412 102.431 38.632 108.341 48.0923 104.653C47.2551 106.912 46.5086 109.385 45.8708 112.089C48.2657 112.608 50.7569 112.88 53.3062 112.796C53.3062 112.796 65.6953 112.514 72.0241 104.503C72.4282 106.906 73.022 109.452 73.8318 112.149C76.1522 111.412 78.4194 110.414 80.5408 109.084C80.5408 109.084 91.2485 102.571 92.6301 92.3691C94.2023 94.2804 96.0167 96.2219 98.1046 98.1867C99.7052 96.4028 101.155 94.4172 102.356 92.2098C102.356 92.2098 108.396 81.1727 104.45 71.6348C106.757 72.4988 109.286 73.2684 112.061 73.923C112.564 71.5799 112.85 69.1386 112.813 66.6239ZM93.9264 66.0896C93.9264 66.0896 88.9312 67.367 83.6391 71.3033C83.806 74.6998 84.5879 78.3696 86.2808 82.2425C85.9814 82.161 81.1246 80.8794 74.7809 81.6171C73.2318 84.6187 72.0717 88.1564 71.5888 92.3193C70.9338 91.6826 67.4496 88.4494 61.9811 86.0993C59.1443 87.9163 56.3753 90.3902 53.8785 93.7385C53.5592 92.6461 52.1281 88.2298 48.6677 83.6094C45.3113 83.7698 41.6878 84.5307 37.864 86.1794C38.1501 84.9862 39.0792 80.488 38.3982 74.8349C35.4092 73.2951 31.8937 72.138 27.7552 71.6548C28.651 70.7039 31.6683 67.2747 33.8754 62.0802C32.0468 59.2462 29.5612 56.4824 26.2001 53.992C27.487 53.6038 31.812 52.1284 36.3065 48.7315C36.1282 45.3617 35.3447 41.7252 33.6662 37.889C34.9431 38.1909 39.4342 39.0916 45.0473 38.3988C46.5816 35.3758 47.7229 31.8171 48.1795 27.6293C48.9809 28.3975 52.4495 31.5388 57.8029 33.8227C60.6667 31.957 63.4562 29.4155 65.9613 25.9738C66.182 26.7633 67.5836 31.405 71.2309 36.2666C74.6372 36.0807 78.3152 35.2754 82.1963 33.5514C82.0319 34.1789 80.8652 38.9437 81.5946 45.0831C84.6348 46.6317 88.2214 47.7799 92.4434 48.2344C92.197 48.4794 88.6633 52.0552 86.1392 57.9176C87.9995 60.7943 90.539 63.5981 93.9834 66.116C93.9644 66.1074 93.9452 66.0983 93.9264 66.0896Z" fill="#34D9C3"/>
<path d="M38.398 74.8351C39.079 80.4883 38.1501 84.9864 37.8638 86.1796C41.6876 84.5309 45.3111 83.7701 48.6675 83.6096C46.2972 80.4447 42.9676 77.1891 38.398 74.8351Z" fill="#99DAEA"/>
<path d="M71.5886 92.3196C72.0715 88.1568 73.2316 84.6189 74.7807 81.6173C70.8425 82.0753 66.3319 83.3128 61.9808 86.0996C67.4493 88.4496 70.9337 91.6829 71.5886 92.3196Z" fill="#99DAEA"/>
<path d="M83.639 71.3033C88.9311 67.367 93.9264 66.0896 93.9264 66.0896C93.9453 66.0983 93.9645 66.1074 93.9834 66.1161C90.539 63.598 87.9995 60.7943 86.1391 57.9177C84.5648 61.574 83.3843 66.1192 83.639 71.3033Z" fill="#99DAEA"/>
<path d="M81.5945 45.0831C80.8651 38.9438 82.0319 34.1789 82.1962 33.5514C78.3151 35.2753 74.6371 36.0806 71.2308 36.2666C73.6204 39.4518 76.9749 42.7302 81.5945 45.0831Z" fill="#99DAEA"/>
<path d="M36.3063 48.7316C31.8117 52.1286 27.4868 53.6038 26.2 53.9921C29.5611 56.4825 32.0467 59.2464 33.8753 62.0803C35.429 58.4236 36.5792 53.8917 36.3063 48.7316Z" fill="#99DAEA"/>
<path d="M48.1792 27.6293C47.7226 31.8172 46.5813 35.3759 45.0471 38.3988C48.9871 37.9124 53.4791 36.6396 57.8027 33.8225C52.4492 31.5387 48.9808 28.3975 48.1792 27.6293Z" fill="#99DAEA"/>
</svg>
